<?xml version="1.0" standalone="no"?>
<!DOCTYPE svg PUBLIC "-//W3C//DTD SVG 20010904//EN"
 "http://www.w3.org/TR/2001/REC-SVG-20010904/DTD/svg10.dtd">
<svg version="1.0" xmlns="http://www.w3.org/2000/svg"
 width="260.000000pt" height="260.000000pt" viewBox="0 0 260.000000 260.000000"
 preserveAspectRatio="xMidYMid meet">
<metadata>
Created by potrace 1.14, written by Peter Selinger 2001-2017
</metadata>
<g transform="translate(0.000000,260.000000) scale(0.100000,-0.100000)"
fill="#000000" stroke="none">
<path d="M1045 2469 c-521 -76 -937 -498 -1005 -1019 -47 -364 76 -718 339
-981 298 -299 711 -414 1121 -313 64 16 188 61 202 73 4 4 1 40 -8 81 -10 46
-14 101 -11 143 2 37 2 67 -1 67 -2 0 -19 -9 -36 -19 -135 -84 -390 -129 -565
-102 -366 57 -656 318 -753 676 -25 92 -34 260 -19 354 57 366 318 656 676
753 92 25 260 34 354 19 371 -58 663 -325 757 -691 28 -111 26 -327 -4 -433
-12 -42 -22 -79 -22 -81 0 -2 21 3 48 11 26 8 91 17 144 20 l97 6 11 51 c6 28
14 101 17 161 32 606 -421 1146 -1027 1225 -90 11 -232 11 -315 -1z"/>
<path d="M2120 824 c-163 -45 -262 -175 -263 -344 0 -105 29 -178 102 -251 72
-72 145 -102 251 -102 105 0 178 29 251 102 72 72 102 145 102 251 0 105 -29
178 -102 251 -90 89 -224 126 -341 93z"/>
</g>
</svg>
