<svg xmlns="http://www.w3.org/2000/svg" xmlns:xlink="http://www.w3.org/1999/xlink" viewBox="0 0 1920 956" fill="none" preserveAspectRatio="xMinYMax meet"><style>.B{opacity:.54}</style><g stroke-miterlimit="10"><path d="M-2067.45 492.948c-10.29 121.96 159.69 221.813 330.42 232.451 170.77 10.685 335.57-44.452 483.32-106.509 147.8-62.011 292.487-133.523 459.412-161.337 345.497-57.516 689.402 82.97 984.228 223.387s620.01 293.415 972.34 263.482c276.24-23.499 506.98-155.873 764.11-231.609 448.82-132.232 995.03-78.644 1376.61 135.193" stroke="url(#A)" class="B"/><path d="M-2075.19 460.446c-10.42 121.819 158.11 221.955 328.31 233.86 15.21 1.093 30.41 1.576 45.55 1.683 154.15.574 303.08-48.76 438.09-104.003l78.04-32.573c121.99-51.477 244.938-103.142 382.514-125.513 44.572-7.273 89.192-11.248 133.64-12.362 299.86-7.643 592.777 115.112 847.893 238.66l55.914 27.042c277.551 133.668 578.948 265.668 905.869 246.691 93.5-5.438 183.32-21.392 271.42-46.692 104.02-29.836 203.55-71.767 301.86-112.164 67.12-27.574 134.06-54.523 203.39-77.316a1552.636 1552.636 0 0199.65-29.112c215.42-55.257 454.75-66.661 682.61-37.423 228.4 29.315 445.58 98.615 626.67 201.988" stroke="url(#B)" class="B"/><path d="M-2082.93 427.936c-10.58 121.757 156.47 222.129 326.14 235.301 15.19 1.171 30.35 1.81 45.46 1.996 153.78 1.7 303-46.212 438.62-100.19l78.31-31.886c122.42-50.398 245.814-101.188 383.347-122.997 44.573-7.069 89.171-10.966 133.641-11.955 299.971-6.815 591.857 116.363 845.263 241.133l55.498 27.308c275.337 135.062 572.126 266.817 895.811 256.567 94.58-2.969 186.66-14.783 277.79-39.29 107.71-28.949 209.78-73.65 308.32-117.142 67.25-29.669 133.74-59.041 202.97-84.163 32.61-11.808 65.79-22.601 99.91-32.286 217.11-61.683 465.23-75.177 699.62-44.243 234.91 30.965 456.68 104.856 641.67 212.399" stroke="url(#C)" class="B"/><path d="M-2090.74 395.463c-10.71 121.617 154.82 222.303 323.99 236.663a676.12 676.12 0 0045.31 2.34c153.52 2.842 302.95-43.617 439.15-96.376l78.62-31.151c122.86-49.32 246.626-99.204 384.182-120.481 44.528-6.914 89.083-10.654 133.531-11.564 299.972-6.002 590.893 117.567 842.634 243.605l55.081 27.575c273.167 136.502 565.546 268.121 885.732 266.52 95.76-.485 189.96-8.221 284.18-31.965 111.44-28.016 216.01-75.533 314.75-122.168 67.44-31.795 133.35-63.605 202.54-91.009 32.52-12.918 65.83-24.79 100.17-35.46 218.79-68.11 475.66-83.74 716.59-51.109 241.45 32.661 467.77 111.096 656.74 222.777" stroke="url(#D)" class="B"/><path d="M-2098.53 362.911c-10.79 121.523 153.25 222.446 321.83 238.104 15.12 1.406 30.1 2.264 45.16 2.684 153.18 4.015 302.86-41.069 439.63-92.609l78.95-30.495c123.3-48.242 247.551-97.204 385.086-117.997a1010.206 1010.206 0 01133.466-11.126c300.039-5.221 589.908 118.85 840.07 246.047l54.709 27.888c270.952 137.896 559.164 269.738 875.609 276.427 96.93 2.077 193.37-1.644 290.58-24.641 115.23-27.114 222.24-77.416 321.21-127.147 67.53-33.937 133.02-68.122 202.18-97.887 32.47-13.981 65.91-26.932 100.5-38.664 220.42-74.585 486.13-92.256 733.56-57.976 247.94 34.311 478.85 117.336 671.8 233.155" stroke="url(#E)" class="B"/><path d="M-2106.27 330.401c-10.99 121.414 151.64 222.667 319.66 239.545a671.196 671.196 0 0045.06 2.997c152.86 5.187 302.79-38.521 440.18-88.795l79.2-29.808c123.75-47.164 248.436-95.251 385.927-115.481 44.485-6.554 88.974-10.059 133.467-10.72 300.149-4.392 588.944 120.056 837.44 248.52l54.292 28.154c268.739 139.29 552.935 271.622 865.524 286.381 98.28 4.624 196.68 4.918 296.96-17.239 118.92-26.226 228.46-79.299 327.74-132.156 67.72-36.063 132.75-72.671 201.75-104.733 32.5-15.076 65.89-29.09 100.76-41.839 222.1-81.011 496.56-100.818 750.54-64.842 254.41 36.039 489.93 123.577 686.86 243.533" stroke="url(#F)" class="B"/><path d="M-2114.01 297.894c-11.08 121.321 150 222.841 317.55 240.955a668.185 668.185 0 0044.92 3.34c152.55 6.282 302.74-35.925 440.59-84.997l79.52-29.073c124.14-46.133 249.243-93.267 386.757-112.965a1034.05 1034.05 0 01133.401-10.283c300.217-3.61 588.024 121.308 834.811 250.993l53.876 28.421c266.524 140.684 546.926 273.739 855.405 296.287 99.59 7.249 200.01 11.527 303.34-9.914 122.66-25.293 234.7-81.182 334.17-137.181 67.85-38.159 132.41-77.188 201.33-111.581 32.4-16.185 65.93-31.277 101.08-45.043 223.78-87.438 507.04-109.335 767.51-71.708 260.91 37.688 501.02 129.817 701.93 253.911" stroke="url(#G)" class="B"/><path d="M-2121.82 265.42c-11.27 121.211 148.42 222.983 315.34 242.348a696.215 696.215 0 0044.83 3.654c152.22 7.454 302.65-33.378 441.12-81.184l79.78-28.386c124.65-45.086 250.172-91.267 387.599-110.449a1032.435 1032.435 0 01133.336-9.845c300.283-2.829 587.061 122.512 832.181 253.466l53.46 28.687c264.31 142.078 540.94 276.184 845.324 306.241 101 9.968 203.31 18.089 309.78-2.543 126.39-24.359 240.93-83.065 340.63-142.16 68.05-40.284 132.08-81.705 200.97-118.458 32.43-17.279 65.91-33.435 101.35-48.217 225.42-93.911 517.47-117.897 784.48-78.575 267.45 39.385 512.11 136.057 716.92 264.322" stroke="url(#H)" class="B"/><path d="M-2129.6 232.868c-11.41 121.07 146.78 223.156 313.24 243.757 14.87 1.859 29.79 3.155 44.67 3.998 151.96 8.596 302.55-30.751 441.66-77.37l80.08-27.652c125.09-44.007 251.055-89.314 388.439-107.933 44.463-6.069 88.887-9.137 133.292-9.485 300.329-1.969 586.141 123.764 829.552 255.939l53.086 29C416.45 686.624 689.439 821.923 989.62 859.27c102.45 12.732 206.72 24.666 316.11 4.812 130.07-23.472 247.15-84.948 347.1-147.138 68.17-42.38 131.7-86.27 200.5-125.352 32.38-18.342 65.95-35.623 101.6-51.39 227.1-100.339 527.88-126.383 801.45-85.442 273.95 41.035 523.24 142.345 731.99 274.7" stroke="url(#I)" class="B"/><path d="M-2137.35 200.355c-11.56 121.008 145.19 223.299 311.06 245.198a685.94 685.94 0 0044.52 4.342c151.6 9.722 302.47-28.203 442.15-73.603l80.42-26.995c125.52-42.93 251.86-87.33 389.267-105.417a1052.31 1052.31 0 01133.228-9.048c300.394-1.187 585.176 124.969 826.987 258.38l52.67 29.266C402.768 667.375 672.14 804.194 968.029 848.533c103.881 15.577 210.071 31.275 322.551 12.184 133.8-22.538 253.42-86.784 353.62-152.148 68.33-44.553 131.37-90.787 200.15-132.229 32.29-19.453 65.99-37.813 101.92-54.596 228.74-106.812 538.32-134.945 818.43-92.308 280.44 42.684 534.39 148.554 747.05 285.078" stroke="url(#J)" class="B"/><path d="M-2145.09 167.856c-11.69 120.867 143.6 223.519 308.85 246.591a661.082 661.082 0 0044.44 4.655c151.33 10.863 302.42-25.608 442.67-69.789l80.68-26.308c125.93-41.899 252.79-85.33 390.111-102.902a1055.523 1055.523 0 01133.162-8.609c300.462-.406 584.213 126.173 824.358 260.853l52.254 29.532c257.602 146.291 523.4 284.881 814.997 336.009 105.358 18.466 213.368 37.836 328.938 19.508 137.54-21.605 259.66-88.667 360.05-157.174 68.53-46.679 131.04-95.304 199.72-139.076 32.31-20.546 65.96-39.969 102.19-57.769 230.42-113.239 548.79-143.461 835.44-99.127 286.98 44.38 545.48 154.793 762.11 295.456" stroke="url(#K)" class="B"/><path d="M-2152.89 135.379c-11.85 120.805 141.94 223.694 306.74 248.001 14.72 2.203 29.49 3.843 44.28 4.999 151 12.036 302.34-23.06 443.1-65.991l80.99-25.574c126.36-40.82 253.67-83.377 391.008-100.417 44.421-5.506 88.757-8.261 133.163-8.203 300.572.423 583.227 127.457 821.728 263.326L120 481.366C375.388 629.05 637.502 769.599 924.874 827.282c106.806 21.435 216.706 44.445 335.316 26.91 141.22-20.718 265.88-90.55 366.51-162.152 68.66-48.774 130.7-99.822 199.29-145.922 32.23-21.657 66.01-42.158 102.51-60.974 232.11-119.666 559.27-151.978 852.42-105.994 293.48 46.03 556.57 161.034 777.18 305.834" stroke="url(#L)" class="B"/><path d="M-2160.68 102.825c-11.98 120.665 140.37 223.836 304.58 249.442a657.28 657.28 0 0044.23 5.358c150.68 13.209 302.3-20.465 443.63-62.177l81.25-24.886c126.81-39.742 254.49-81.392 391.852-97.901 44.377-5.35 88.78-7.933 133.098-7.765 300.639 1.204 582.263 128.661 819.098 265.799l51.465 30.112C361.74 609.932 620.106 752.673 903.317 816.676c108.303 24.451 220.073 50.976 341.703 34.235 144.96-19.784 272.11-92.433 373.05-167.162 68.85-50.899 130.39-104.417 198.93-152.8 32.25-22.75 66.05-44.346 102.77-64.148 233.74-126.139 569.7-160.54 869.39-112.86 300.02 47.727 567.66 167.275 792.18 316.245" stroke="url(#M)" class="B"/><path d="M-2168.42 70.315c-12.14 120.603 138.72 224.01 302.46 250.852 14.62 2.39 29.32 4.265 44.09 5.702 150.37 14.303 302.22-17.917 444.11-58.411l81.52-24.198c127.25-38.664 255.41-79.393 392.687-95.385a1080.963 1080.963 0 01133.032-7.328c300.641 2.017 581.344 129.913 816.469 268.272l51.048 30.378C348 590.716 602.573 735.806 881.733 805.942c109.71 27.575 223.417 57.585 348.147 41.606 148.68-18.851 278.34-94.316 379.47-172.187 68.93-53.042 130.05-108.935 198.5-159.647 32.2-23.814 66.07-46.457 103.03-67.322 235.42-132.566 580.18-169.056 886.36-119.726 306.52 49.376 578.75 173.514 807.24 326.622" stroke="url(#N)" class="B"/><path d="M-2176.23 37.847c-12.26 120.462 137.08 224.184 300.26 252.245 14.53 2.5 29.25 4.5 43.93 6.046 150.04 15.476 302.18-15.321 444.65-54.597l81.89-23.495c127.7-37.664 256.29-77.439 393.52-92.869 44.333-4.991 88.67-7.34 132.989-6.968 300.707 2.798 580.379 131.117 813.905 270.713l50.631 30.644c248.79 151.913 499.57 299.556 774.657 375.699 111.162 30.747 226.718 64.146 354.478 48.962 152.36-17.964 284.5-96.168 385.93-177.166 69.13-55.168 129.72-113.453 198.14-166.525 32.11-24.923 66.11-48.645 103.36-70.526 237.1-138.994 590.61-177.619 903.33-126.593 313.06 51.072 589.83 179.754 822.31 337" stroke="url(#O)" class="B"/><path d="M-2183.97 5.338c-12.42 120.399 135.5 224.326 298.09 253.685a650.146 650.146 0 0043.84 6.36c149.78 16.617 302.09-12.774 445.11-50.752l82.16-22.808c128.14-36.586 257.1-75.455 394.357-90.353 44.29-4.835 88.583-7.027 132.924-6.53 300.818 3.627 579.459 132.368 811.275 273.186l50.259 30.957C320.62 552.39 567.433 702.804 838.578 784.689c112.483 33.981 230.062 70.755 360.912 56.333 156.1-17.031 290.73-98.051 392.4-182.145 69.26-57.262 129.38-117.969 197.72-173.371 32.13-26.018 66.08-50.803 103.61-73.7 238.74-145.467 601.09-186.135 920.31-133.459 319.55 52.722 600.92 185.995 837.37 347.379" stroke="url(#P)" class="B"/><path d="M-2191.76-27.217c-12.55 120.259 133.9 224.548 295.98 255.096a647.564 647.564 0 0043.69 6.703c149.46 17.79 302.01-10.226 445.6-46.985l82.47-22.074c128.58-35.508 258.02-73.455 395.192-87.837 44.29-4.631 88.562-6.745 132.859-6.092 300.884 4.408 578.495 133.574 808.646 275.66l49.842 31.223c244.361 154.7 487.141 307.917 754.453 395.56 113.782 37.293 233.428 77.285 367.308 63.657 159.83-16.097 296.95-99.934 398.93-187.155 69.45-59.389 129-122.533 197.29-180.217 32.04-27.128 66.13-52.991 103.88-76.874 240.42-151.894 611.51-194.698 937.27-140.326 326.1 54.419 612.01 192.235 852.44 357.758" stroke="url(#Q)" class="B"/><path d="M-2199.5-59.725c-12.64 120.165 132.25 224.721 293.76 256.489 14.44 2.813 28.95 5.189 43.61 7.016 149.08 18.917 301.96-7.63 446.13-43.171l82.72-21.386c129.03-34.43 258.91-71.502 396.038-85.322 44.246-4.475 88.539-6.464 132.858-5.686 300.952 5.19 577.532 134.778 806.017 278.132l49.426 31.49c242.147 156.094 480.674 312.286 744.33 405.466 115.059 40.685 236.772 83.894 373.632 71.013 163.52-15.21 303.19-101.817 405.35-192.18 69.58-61.484 128.67-127.051 196.94-187.095 32.06-28.222 66.16-55.18 104.2-80.079 242.05-158.368 621.99-203.214 954.25-147.193 332.58 56.069 623.09 198.476 867.43 368.168" stroke="url(#R)" class="B"/><path d="M-2207.31-92.195c-12.83 120.056 130.68 224.864 291.67 257.898a617.58 617.58 0 0043.45 7.36c148.82 20.058 301.88-5.082 446.61-39.404l83-20.699c129.46-33.351 259.72-69.517 396.933-82.836 44.202-4.318 88.496-6.104 132.793-5.248 300.997 6.049 576.612 136.031 803.387 280.606l49.009 31.756c239.933 157.488 474.23 316.78 734.251 415.42 116.269 44.107 240.067 90.456 380.067 78.384 167.25-14.276 309.46-103.653 411.82-197.158 69.73-63.657 128.4-131.6 196.47-193.989 32.01-29.285 66.14-57.337 104.46-83.253 243.8-164.826 632.42-211.777 971.26-154.012 339.09 57.718 634.18 204.716 882.5 378.546" stroke="url(#S)" class="B"/><path d="M-2215.05-124.702c-12.92 119.962 129.03 225.037 289.49 259.338 14.31 3.079 28.77 5.611 43.3 7.705 148.49 21.23 301.84-2.487 447.15-35.591l83.37-19.995c129.86-32.32 260.64-67.518 397.813-80.274 44.203-4.115 88.475-5.823 132.685-4.857C-520.179 8.454-245.66 138.89-20.419 284.67l48.702 32.038C266.002 475.589 495.827 638.029 752.41 742.035c117.349 47.591 243.41 97.064 386.46 85.708 170.98-13.343 315.69-105.536 418.29-202.137 69.93-65.783 128.06-136.117 196.04-200.835 31.99-30.426 66.18-59.526 104.78-86.458 245.49-171.253 642.9-220.293 988.24-160.878 345.62 59.414 645.33 210.925 897.56 388.924" stroke="url(#T)" class="B"/><path d="M-2222.83-157.262c-13.13 119.853 127.38 225.211 287.32 260.78a637.332 637.332 0 0043.21 8.016c148.18 22.326 301.75.062 447.61-31.745l83.63-19.308c130.3-31.242 261.53-65.565 398.655-77.758 44.159-3.959 88.387-5.51 132.619-4.419 301.13 7.613 574.662 138.518 798.193 285.52l48.286 32.304c235.439 160.307 460.726 325.925 714.003 435.234 118.429 51.076 246.776 103.595 392.834 93.111 174.67-12.456 321.92-107.419 424.77-207.194 70.06-67.878 127.73-140.634 195.68-207.713 31.95-31.489 66.23-61.714 105.05-89.631 247.12-177.726 653.33-228.856 1005.21-167.745 352.12 61.064 656.46 217.213 912.62 399.303" stroke="url(#U)" class="B"/><path d="M-2230.58-189.765c-13.21 119.76 125.85 225.401 285.18 262.142a634.42 634.42 0 0043.05 8.361c147.86 23.499 301.72 2.656 448.1-27.979l83.94-18.573c130.81-30.195 262.34-63.58 399.493-75.243 44.16-3.755 88.366-5.228 132.619-4.013 301.241 8.441 573.699 139.723 795.564 287.992l47.869 32.57C238.504 437.24 459.057 606.13 709.159 720.68c119.42 54.67 250.119 110.204 399.231 100.435 178.4-11.522 328.14-109.302 431.24-212.172 70.25-70.004 127.35-145.199 195.25-214.56 31.9-32.552 66.2-63.871 105.3-92.805 248.81-184.153 663.75-237.34 1022.19-174.611 358.66 62.761 667.55 223.452 927.68 409.681" stroke="url(#V)" class="B"/><path d="M-2238.38-222.242c-13.41 119.65 124.2 225.574 283 263.583 14.22 3.392 28.53 6.267 42.9 8.705 147.53 24.671 301.63 5.205 448.64-24.165l84.2-17.886c131.25-29.117 263.22-61.627 400.326-72.726 44.116-3.599 88.344-4.947 132.554-3.575 301.308 9.222 572.779 140.974 792.934 290.465l47.453 32.837c231.054 163.141 446.675 335.398 693.8 455.094 120.302 58.249 253.418 116.765 405.663 107.806 182.2-10.62 334.38-111.185 437.71-217.151 70.33-72.146 127.01-149.716 194.89-221.437 31.88-33.693 66.24-66.06 105.63-96.01C2081.8 92.717 2505.5 37.394 2870.48 101.819c365.15 64.41 678.64 229.693 942.68 420.09" stroke="url(#W)" class="B"/><path d="M-2246.13-254.751c-13.49 119.556 122.56 225.748 280.9 264.992 14.14 3.501 28.4 6.533 42.82 9.018 147.27 25.813 301.59 7.799 449.12-20.398l84.47-17.198c131.64-28.086 264.14-59.627 401.16-70.211 44.116-3.396 88.257-4.634 132.489-3.137C-553.862-81.651-283.356 50.493-64.866 201.252l47.081 33.15c228.84 164.535 439.484 340.112 683.72 465.048 121.097 61.938 256.761 123.374 411.995 115.162 185.88-9.733 340.6-113.068 444.24-222.16 70.53-74.273 126.68-154.234 194.46-228.284 31.84-34.756 66.26-68.171 105.89-99.184C2074.64 67.93 2507.17 10.564 2878.65 76.64c371.63 66.137 689.73 235.933 957.75 430.468" stroke="url(#X)" class="B"/><path d="M-2253.91-287.301c-13.69 119.447 120.97 225.89 278.68 266.386 14.05 3.611 28.34 6.768 42.67 9.362 146.89 26.938 301.5 10.348 449.58-16.553l84.84-16.496c132.09-27.008 264.96-57.643 402.004-67.695 44.073-3.239 88.235-4.353 132.49-2.731 301.419 10.864 570.851 143.384 787.675 295.411l46.664 33.416c226.626 165.929 432.098 344.92 673.663 474.924 121.848 65.579 260.17 129.952 418.435 122.533 189.61-8.799 346.83-114.951 450.66-227.186 70.65-76.367 126.34-158.751 194.04-235.13 31.81-35.897 66.3-70.359 106.21-102.389C2067.5 43.07 2508.79-16.431 2886.8 51.341c378.13 67.787 700.82 242.173 972.81 440.846" stroke="url(#Y)" class="B"/><path d="M-2261.65-319.802c-13.78 119.354 119.33 226.065 276.58 267.795a625.24 625.24 0 0042.62 9.721c146.63 28.08 301.46 12.943 450.12-12.739l85.1-15.808c132.53-25.929 265.84-55.69 402.9-65.21 44.033-3.083 88.196-3.994 132.384-2.34C-570.46-126.738-302.015 6.252-86.835 159.47l46.247 33.681c224.412 167.323 424.6 349.712 663.583 484.878 122.511 69.33 263.47 136.513 424.825 129.857 193.35-7.865 353.06-116.834 457.13-232.164 70.85-78.493 126.03-163.347 193.68-242.008 31.77-36.96 66.34-72.548 106.47-105.563C2060.54 18.197 2510.66-43.347 2895.28 26.09c384.63 69.437 711.91 248.413 987.88 451.225" stroke="url(#Z)" class="B"/><path d="M-2269.46-352.279c-13.98 119.245 117.79 226.254 274.41 269.236 13.98 3.845 28.16 7.19 42.46 10.066 146.31 29.253 301.39 15.491 450.61-8.973l85.37-15.12c132.97-24.851 266.76-53.69 403.74-62.695 44.029-2.879 88.17-3.712 132.315-1.902C-579.002-149.24-311.588-15.826-98.074 138.659l45.875 33.995c222.198 168.717 416.993 354.488 653.46 494.785 123.129 73.034 266.812 143.122 431.199 137.259 197.03-6.978 359.28-118.717 463.59-237.142 70.98-80.589 125.7-167.865 193.26-248.855 31.72-38.023 66.31-74.705 106.73-108.736C2053.16-6.416 2512.07-70.05 2903.19 1.037c391.17 71.133 722.99 254.654 1002.94 461.604" stroke="url(#a)" class="B"/><path d="M-2277.2-384.788c-14.07 119.151 116.15 226.428 272.24 270.677 13.96 3.923 28.09 7.424 42.31 10.409 146 30.348 301.3 18.039 451.14-5.159l85.67-14.386c133.41-23.773 267.58-51.705 404.58-60.178 43.986-2.724 88.15-3.431 132.317-1.496 301.619 13.208 567.981 147.124 779.851 302.799l45.459 34.261C156.35 322.25 345.577 511.42 579.746 656.877c123.617 76.802 270.178 149.653 437.594 144.584 200.76-6.045 365.56-120.553 470.08-242.199 71.13-82.761 125.36-172.382 192.89-255.733 31.7-39.164 66.36-76.893 107.06-111.941C2046.17-31.22 2513.84-96.989 2911.5-24.206s734.07 260.894 1018 471.982" stroke="url(#b)" class="B"/><path d="M-2284.99-417.343c-14.27 119.041 114.5 226.601 270.09 272.039a641.87 641.87 0 0042.22 10.722c145.68 31.521 301.26 20.634 451.63-1.392l85.94-13.698c133.87-22.773 268.46-49.753 405.41-57.663 43.99-2.52 88.066-3.118 132.255-1.058C-595.78-194.325-330.427-60.065-120.223 96.879l45.041 34.527c217.77 171.504 401.319 364.058 633.257 514.645 124.104 80.568 273.521 156.262 444.025 151.955 204.5-5.111 371.79-122.436 476.55-247.178 71.33-84.887 125.03-176.898 192.47-262.579 31.65-40.227 66.4-79.082 107.32-115.115 260.43-229.281 736.94-297.093 1141.1-222.66 404.2 74.479 745.16 267.134 1033 482.391" stroke="url(#c)" class="B"/><path d="M-2292.8-449.818c-14.35 118.948 112.92 226.744 267.92 273.48 13.83 4.189 27.92 7.846 42.07 11.066 145.35 32.693 301.18 23.182 452.09 2.453l86.32-12.995c134.31-21.695 269.38-47.753 406.25-55.147 43.942-2.364 88.04-2.837 132.185-.62 301.731 14.849 566.098 149.58 774.592 307.745l44.625 34.793c215.556 172.898 393.317 368.82 623.178 524.599 124.416 84.351 276.82 162.824 450.357 159.311 208.183-4.224 378.013-124.319 483.013-252.156 71.45-86.983 124.69-181.416 192-269.473 31.67-41.321 66.37-81.239 107.57-118.288 262.12-235.709 747.38-305.656 1158.08-229.527 410.69 76.129 756.25 273.375 1048.06 492.77" stroke="url(#d)" class="B"/><path d="M-2300.54-482.327c-14.48 118.807 111.28 226.918 265.82 274.889 13.8 4.267 27.78 8.113 41.98 11.379 145.09 33.835 301.14 25.778 452.58 6.22l86.58-12.308c134.75-20.617 270.19-45.768 407.09-52.631 43.96-2.239 87.951-2.524 132.14-.261 301.799 15.632 565.135 150.785 772.029 310.187 15.065 11.598 29.758 23.305 44.253 35.107 213.385 174.339 385.27 373.534 613.053 534.506 124.728 88.134 280.163 169.432 456.795 166.682 211.91-3.291 384.24-126.202 489.48-257.135 71.65-89.108 124.31-185.98 191.64-276.35 31.58-42.431 66.41-83.428 107.9-121.494 263.8-242.135 757.85-314.172 1175.04-236.393 417.24 77.826 767.41 279.583 1063.13 503.148" stroke="url(#e)" class="B"/><path d="M-2308.28-514.833c-15.94 129.329 132.94 246.355 305.48 288.053 172.5 41.65 361.38 24.254 539.95-1.587 178.58-25.841 358.46-59.829 540.069-49.97 323.762 17.639 602.108 172.347 813.169 348.064C101.56 245.46 267.438 447.991 493.318 614.14c124.975 91.947 283.528 175.962 463.189 174.006 215.643-2.357 390.473-128.086 495.963-262.192s168.77-285.516 299.38-407.864c265.43-248.609 768.28-322.735 1192.01-243.259 423.74 79.475 778.5 285.823 1078.19 513.526" stroke="url(#f)" class="B"/></g><defs><linearGradient id="A" x1="3282.23" y1="964.49" x2="-1966.03" y2="-49.632" xlink:href="#g"><stop stop-color="#7ed4ef"/><stop offset=".229" stop-color="#66bfe6"/><stop offset=".711" stop-color="#298bd0"/><stop offset="1" stop-color="#0169c2"/></linearGradient><linearGradient id="B" x1="3307.56" y1="938.758" x2="-1973.87" y2="-81.771" xlink:href="#g"><stop stop-color="#7ed4ef"/><stop offset=".229" stop-color="#66bfe6"/><stop offset=".711" stop-color="#298bd0"/><stop offset="1" stop-color="#0169c2"/></linearGradient><linearGradient id="C" x1="3332.89" y1="913.028" x2="-1981.71" y2="-113.912" xlink:href="#g"><stop stop-color="#7ed4ef"/><stop offset=".229" stop-color="#66bfe6"/><stop offset=".711" stop-color="#298bd0"/><stop offset="1" stop-color="#0169c2"/></linearGradient><linearGradient id="D" x1="3357.55" y1="890.74" x2="-1990.22" y2="-142.609" xlink:href="#g"><stop stop-color="#7ed4ef"/><stop offset=".229" stop-color="#66bfe6"/><stop offset=".711" stop-color="#298bd0"/><stop offset="1" stop-color="#0169c2"/></linearGradient><linearGradient id="E" x1="3381.08" y1="874.332" x2="-1999.86" y2="-165.427" xlink:href="#g"><stop stop-color="#7ed4ef"/><stop offset=".229" stop-color="#66bfe6"/><stop offset=".711" stop-color="#298bd0"/><stop offset="1" stop-color="#0169c2"/></linearGradient><linearGradient id="F" x1="3404.54" y1="858.268" x2="-2009.58" y2="-187.9" xlink:href="#g"><stop stop-color="#7ed4ef"/><stop offset=".229" stop-color="#66bfe6"/><stop offset=".711" stop-color="#298bd0"/><stop offset="1" stop-color="#0169c2"/></linearGradient><linearGradient id="G" x1="3427.92" y1="842.58" x2="-2019.36" y2="-209.996" xlink:href="#g"><stop stop-color="#7ed4ef"/><stop offset=".229" stop-color="#66bfe6"/><stop offset=".711" stop-color="#298bd0"/><stop offset="1" stop-color="#0169c2"/></linearGradient><linearGradient id="H" x1="3451.23" y1="827.294" x2="-2029.22" y2="-231.692" xlink:href="#g"><stop stop-color="#7ed4ef"/><stop offset=".229" stop-color="#66bfe6"/><stop offset=".711" stop-color="#298bd0"/><stop offset="1" stop-color="#0169c2"/></linearGradient><linearGradient id="I" x1="3474.37" y1="812.873" x2="-2039.24" y2="-252.522" xlink:href="#g"><stop stop-color="#7ed4ef"/><stop offset=".229" stop-color="#66bfe6"/><stop offset=".711" stop-color="#298bd0"/><stop offset="1" stop-color="#0169c2"/></linearGradient><linearGradient id="J" x1="3497.36" y1="799.15" x2="-2049.41" y2="-272.652" xlink:href="#g"><stop stop-color="#7ed4ef"/><stop offset=".229" stop-color="#66bfe6"/><stop offset=".711" stop-color="#298bd0"/><stop offset="1" stop-color="#0169c2"/></linearGradient><linearGradient id="K" x1="3520.28" y1="785.869" x2="-2059.65" y2="-292.343" xlink:href="#g"><stop stop-color="#7ed4ef"/><stop offset=".229" stop-color="#66bfe6"/><stop offset=".711" stop-color="#298bd0"/><stop offset="1" stop-color="#0169c2"/></linearGradient><linearGradient id="L" x1="3543.14" y1="772.876" x2="-2069.96" y2="-311.74" xlink:href="#g"><stop stop-color="#7ed4ef"/><stop offset=".229" stop-color="#66bfe6"/><stop offset=".711" stop-color="#298bd0"/><stop offset="1" stop-color="#0169c2"/></linearGradient><linearGradient id="M" x1="3565.95" y1="760.101" x2="-2080.3" y2="-330.921" xlink:href="#g"><stop stop-color="#7ed4ef"/><stop offset=".229" stop-color="#66bfe6"/><stop offset=".711" stop-color="#298bd0"/><stop offset="1" stop-color="#0169c2"/></linearGradient><linearGradient id="N" x1="3588.73" y1="747.481" x2="-2090.68" y2="-349.952" xlink:href="#g"><stop stop-color="#7ed4ef"/><stop offset=".229" stop-color="#66bfe6"/><stop offset=".711" stop-color="#298bd0"/><stop offset="1" stop-color="#0169c2"/></linearGradient><linearGradient id="O" x1="3611.5" y1="734.997" x2="-2101.08" y2="-368.844" xlink:href="#g"><stop stop-color="#7ed4ef"/><stop offset=".229" stop-color="#66bfe6"/><stop offset=".711" stop-color="#298bd0"/><stop offset="1" stop-color="#0169c2"/></linearGradient><linearGradient id="P" x1="3634.24" y1="722.603" x2="-2111.5" y2="-387.643" xlink:href="#g"><stop stop-color="#7ed4ef"/><stop offset=".229" stop-color="#66bfe6"/><stop offset=".711" stop-color="#298bd0"/><stop offset="1" stop-color="#0169c2"/></linearGradient><linearGradient id="Q" x1="3656.96" y1="710.286" x2="-2121.94" y2="-406.368" xlink:href="#g"><stop stop-color="#7ed4ef"/><stop offset=".229" stop-color="#66bfe6"/><stop offset=".711" stop-color="#298bd0"/><stop offset="1" stop-color="#0169c2"/></linearGradient><linearGradient id="R" x1="3679.66" y1="698.034" x2="-2132.39" y2="-425.027" xlink:href="#g"><stop stop-color="#7ed4ef"/><stop offset=".229" stop-color="#66bfe6"/><stop offset=".711" stop-color="#298bd0"/><stop offset="1" stop-color="#0169c2"/></linearGradient><linearGradient id="S" x1="3702.37" y1="685.841" x2="-2142.84" y2="-443.627" xlink:href="#g"><stop stop-color="#7ed4ef"/><stop offset=".229" stop-color="#66bfe6"/><stop offset=".711" stop-color="#298bd0"/><stop offset="1" stop-color="#0169c2"/></linearGradient><linearGradient id="T" x1="3725.06" y1="673.684" x2="-2153.31" y2="-462.191" xlink:href="#g"><stop stop-color="#7ed4ef"/><stop offset=".229" stop-color="#66bfe6"/><stop offset=".711" stop-color="#298bd0"/><stop offset="1" stop-color="#0169c2"/></linearGradient><linearGradient id="U" x1="3747.74" y1="661.559" x2="-2163.78" y2="-480.719" xlink:href="#g"><stop stop-color="#7ed4ef"/><stop offset=".229" stop-color="#66bfe6"/><stop offset=".711" stop-color="#298bd0"/><stop offset="1" stop-color="#0169c2"/></linearGradient><linearGradient id="V" x1="3770.42" y1="649.475" x2="-2174.26" y2="-499.214" xlink:href="#g"><stop stop-color="#7ed4ef"/><stop offset=".229" stop-color="#66bfe6"/><stop offset=".711" stop-color="#298bd0"/><stop offset="1" stop-color="#0169c2"/></linearGradient><linearGradient id="W" x1="3793.09" y1="637.411" x2="-2184.74" y2="-517.685" xlink:href="#g"><stop stop-color="#7ed4ef"/><stop offset=".229" stop-color="#66bfe6"/><stop offset=".711" stop-color="#298bd0"/><stop offset="1" stop-color="#0169c2"/></linearGradient><linearGradient id="X" x1="3815.76" y1="625.372" x2="-2195.23" y2="-536.131" xlink:href="#g"><stop stop-color="#7ed4ef"/><stop offset=".229" stop-color="#66bfe6"/><stop offset=".711" stop-color="#298bd0"/><stop offset="1" stop-color="#0169c2"/></linearGradient><linearGradient id="Y" x1="3838.42" y1="613.357" x2="-2205.72" y2="-554.552" xlink:href="#g"><stop stop-color="#7ed4ef"/><stop offset=".229" stop-color="#66bfe6"/><stop offset=".711" stop-color="#298bd0"/><stop offset="1" stop-color="#0169c2"/></linearGradient><linearGradient id="Z" x1="3861.08" y1="601.361" x2="-2216.22" y2="-572.955" xlink:href="#g"><stop stop-color="#7ed4ef"/><stop offset=".229" stop-color="#66bfe6"/><stop offset=".711" stop-color="#298bd0"/><stop offset="1" stop-color="#0169c2"/></linearGradient><linearGradient id="a" x1="3883.74" y1="589.376" x2="-2226.72" y2="-591.346" xlink:href="#g"><stop stop-color="#7ed4ef"/><stop offset=".229" stop-color="#66bfe6"/><stop offset=".711" stop-color="#298bd0"/><stop offset="1" stop-color="#0169c2"/></linearGradient><linearGradient id="b" x1="3906.39" y1="577.402" x2="-2237.22" y2="-609.725" xlink:href="#g"><stop stop-color="#7ed4ef"/><stop offset=".229" stop-color="#66bfe6"/><stop offset=".711" stop-color="#298bd0"/><stop offset="1" stop-color="#0169c2"/></linearGradient><linearGradient id="c" x1="3929.04" y1="565.441" x2="-2247.73" y2="-628.094" xlink:href="#g"><stop stop-color="#7ed4ef"/><stop offset=".229" stop-color="#66bfe6"/><stop offset=".711" stop-color="#298bd0"/><stop offset="1" stop-color="#0169c2"/></linearGradient><linearGradient id="d" x1="3951.69" y1="553.494" x2="-2258.23" y2="-646.443" xlink:href="#g"><stop stop-color="#7ed4ef"/><stop offset=".229" stop-color="#66bfe6"/><stop offset=".711" stop-color="#298bd0"/><stop offset="1" stop-color="#0169c2"/></linearGradient><linearGradient id="e" x1="3974.34" y1="541.553" x2="-2268.73" y2="-664.794" xlink:href="#g"><stop stop-color="#7ed4ef"/><stop offset=".229" stop-color="#66bfe6"/><stop offset=".711" stop-color="#298bd0"/><stop offset="1" stop-color="#0169c2"/></linearGradient><linearGradient id="f" x1="3996.98" y1="529.624" x2="-2279.24" y2="-683.129" xlink:href="#g"><stop stop-color="#7ed4ef"/><stop offset=".229" stop-color="#66bfe6"/><stop offset=".711" stop-color="#298bd0"/><stop offset="1" stop-color="#0169c2"/></linearGradient><linearGradient id="g" gradientUnits="userSpaceOnUse"/></defs></svg>