<svg viewBox="0 0 543 1294" fill="none" xmlns="http://www.w3.org/2000/svg"><path d="M929.403 1209.59C697.384 1330.1 477.648 949.568 357.131 717.544c-96.409-185.615-24.091-414.243 161.528-510.66 148.491-77.13 331.392-19.27 408.522 129.221 61.698 118.798 15.42 265.118-103.378 326.816-95.033 49.36-212.092 12.331-261.452-82.702C522.859 504.193 663.433 378.17 716.36 445.54" stroke="#2E3192" stroke-width=".696" stroke-miterlimit="10"/><path d="M927.21 1200.97c-225.417 116.76-443.685-248.358-565.804-474.737-96.243-180.034-31.192-402.016 143.724-498.614 139.902-77.349 309.013-23.735 389.131 110.506 60.753 101.781 38.333 244.907-64.085 314.621-28.338 19.293-59.957 28.573-93.525 29.957-63.884 2.627-136.725-43.733-167.342-102.685-37.611-72.413 94.805-193.752 149.22-129.132" stroke="#2C3B97" stroke-width=".696" stroke-miterlimit="10"/><path d="M925.003 1192.36c-218.81 112.99-436.442-236.231-559.341-457.427-96.727-174.084-38.29-389.775 125.911-486.573 131.309-77.583 286.155-27.235 369.746 91.781 60.1 85.577 60.72 224.98-24.793 302.428-23.718 21.477-51.198 33.381-83.407 38.582-63.577 10.267-147.793-45.33-176.875-101.338-35.726-68.785 88.543-185.458 144.425-123.576" stroke="#2A459C" stroke-width=".696" stroke-miterlimit="10"/><path d="M922.812 1183.74c-212.205 109.23-428.737-224.339-552.88-440.112-96.844-168.329-45.396-377.541 108.104-474.542 122.717-77.815 263.015-29.425 350.347 73.061 60.066 70.49 82.699 205.676 14.499 290.233-19.234 23.847-42.604 38.438-73.294 47.216-63.79 18.242-158.847-46.93-186.407-99.99-33.845-65.172 82.267-177.161 139.635-118.029" stroke="#274EA2" stroke-width=".696" stroke-miterlimit="10"/><path d="M920.61 1175.12C715.007 1280.6 499.601 962.672 374.197 752.311c-96.92-162.583-52.493-365.3 90.291-462.501 114.12-78.04 261.288-48.279 330.963 54.337 72.318 41.774 104.607 187.262 53.791 278.038-14.82 26.478-34.113 43.795-63.177 55.842-64.329 26.669-169.914-48.527-195.939-98.642-31.969-61.55 75.991-168.864 134.846-112.482" stroke="#2558A7" stroke-width=".696" stroke-miterlimit="10"/><path d="M918.413 1166.51c-199.005 101.72-413.231-200.559-539.95-405.495-96.975-156.836-59.594-353.073 72.487-450.455 105.527-78.273 243.762-55.519 311.571 35.621 74.971 22.504 126.915 169.773 93.084 265.844-10.343 29.369-25.625 49.441-53.072 64.471-64.986 35.607-180.977-50.132-205.473-97.295-30.084-57.923 69.715-160.566 130.049-106.94" stroke="#2362AC" stroke-width=".696" stroke-miterlimit="10"/><path d="M916.213 1157.88c-192.399 97.96-405.427-188.671-533.489-388.176-96.997-151.102-66.699-340.838 54.68-438.423 96.929-78.497 226.234-62.772 292.173 16.901 77.626 3.248 149.959 152.926 132.376 253.65-5.664 32.442-17.074 55.324-42.955 73.097-65.548 45.035-192.036-51.725-214.996-95.943-28.203-54.309 63.444-152.277 125.254-101.384" stroke="#216CB1" stroke-width=".696" stroke-miterlimit="10"/><path d="M914.012 1149.26c-185.796 94.21-397.575-176.811-527.021-370.874-96.977-145.38-73.59-328.365 36.868-426.383 88.506-78.532 208.706-70.025 272.787-1.823 80.281-16.008 173.833 136.286 171.669 241.455-.729 35.593-8.428 61.396-32.842 81.731-65.886 54.895-203.099-53.329-224.529-94.595-26.327-50.687 57.168-143.98 120.464-95.837" stroke="#1F76B6" stroke-width=".696" stroke-miterlimit="10"/><path d="M911.814 1140.65c-179.19 90.45-389.675-164.948-520.559-353.557-96.926-139.672-80.648-316.113 19.06-414.351 79.939-78.75 191.178-77.279 253.397-20.538 82.936-35.264 198.363 119.491 210.961 229.261 4.439 38.688.338 67.574-22.724 90.356-65.883 65.092-214.167-54.926-234.062-93.247-24.45-47.066 50.892-135.683 115.675-90.29" stroke="#1C7FBC" stroke-width=".696" stroke-miterlimit="10"/><path d="M909.613 1132.03c-172.589 86.69-381.736-153.116-514.097-336.248-96.836-133.986-87.71-303.873 1.256-402.304 71.378-78.976 173.653-84.519 234.003-39.268 85.592-54.52 223.311 102.381 250.254 217.067 9.791 41.674 9.227 73.819-12.607 98.982-65.508 75.52-225.22-56.527-243.594-91.9-22.56-43.446 44.621-127.394 110.885-84.742" stroke="#1A89C1" stroke-width=".696" stroke-miterlimit="10"/><path d="M907.42 1123.41c-165.982 82.94-373.755-141.308-507.63-318.938-96.706-128.312-94.78-291.639-16.557-390.264 62.816-79.202 156.125-91.773 214.613-57.983 88.247-73.776 248.479 84.892 289.547 204.871 15.242 44.537 18.208 80.085-2.495 107.617-64.753 86.088-236.288-58.123-253.132-90.544-20.684-39.824 38.345-119.097 106.091-79.187" stroke="#1893C6" stroke-width=".696" stroke-miterlimit="10"/><path d="M905.214 1114.8c-159.376 79.17-365.719-129.524-501.168-301.631-96.546-122.666-101.844-279.414-34.364-378.232 54.251-79.441 138.597-99.026 195.228-76.707 90.902-93.032 273.721 67.077 328.847 192.683 20.745 47.278 27.297 86.347 7.624 116.242-63.657 96.727-247.351-59.729-262.665-89.197-18.808-36.202 32.069-110.799 101.293-73.644" stroke="#169DCB" stroke-width=".696" stroke-miterlimit="10"/><path d="M903.013 1106.18c-152.774 75.42-357.621-117.777-494.705-284.318-96.335-117.046-108.913-267.202-52.177-366.191 45.677-79.686 121.068-106.28 175.829-95.428 93.548-112.294 298.956 48.988 368.14 180.488 26.269 49.928 36.453 92.593 17.735 124.876-62.261 107.376-258.41-61.32-272.188-87.844-16.927-32.588 25.792-102.502 96.503-68.097" stroke="#14A7D0" stroke-width=".696" stroke-miterlimit="10"/><path d="M900.821 1097.56c-146.167 71.66-349.488-106.064-488.238-267.011-96.094-111.455-115.998-255.001-69.981-354.145 37.101-79.945 103.543-113.52 156.439-114.144 96.203-131.549 324.142 30.695 407.432 168.294 31.783 52.5 45.667 98.804 27.854 133.502-60.611 118.006-269.473-62.926-281.722-86.496-15.042-28.962 19.522-94.214 91.714-62.55" stroke="#12B1D5" stroke-width=".696" stroke-miterlimit="10"/><path d="M898.614 1088.94c-139.561 67.91-341.281-94.394-481.776-249.691-95.811-105.895-123.092-242.804-87.789-342.113 28.516-80.208 86.015-120.773 137.054-132.867 98.858-150.806 349.262 12.243 446.725 156.099 37.269 55.022 54.936 104.979 37.965 142.136-58.749 128.58-280.532-64.518-291.254-85.149-13.165-25.339 13.255-85.91 86.92-56.994" stroke="#0FBADB" stroke-width=".696" stroke-miterlimit="10"/><path d="M896.421 1080.33c-132.959 64.15-333.03-82.806-475.313-232.385-95.479-100.377-130.21-230.624-105.601-330.073 19.908-80.473 68.486-128.026 117.654-151.588 101.514-170.061 374.318-6.33 486.017 143.905 42.747 57.503 64.251 111.123 48.076 150.757-56.73 139.088-291.595-66.124-300.787-83.802-11.284-21.726 6.978-77.613 82.13-51.447" stroke="#0DC4E0" stroke-width=".696" stroke-miterlimit="10"/><path d="M894.215 1071.71c-126.353 60.39-324.709-71.26-468.847-215.074-95.12-94.9-137.334-218.436-123.413-318.032 11.292-80.744 50.958-135.28 98.269-170.312 104.169-189.318 399.31-24.99 525.31 131.71 48.209 59.95 73.584 117.233 58.193 159.382-54.584 149.522-302.663-67.719-310.319-82.453-9.4-18.099.702-69.317 77.34-45.9" stroke="#0BCEE5" stroke-width=".696" stroke-miterlimit="10"/><path d="M892.015 1063.09c-119.747 56.63-316.334-59.82-462.385-197.763-94.731-89.473-144.485-206.24-141.212-305.994 2.658-81.004 40.905-136.25 78.879-189.027 136.837-190.229 424.244-43.709 564.602 119.515 53.646 62.382 82.941 123.301 68.301 168.016-52.326 159.895-313.717-69.311-319.847-81.106-7.519-14.485-5.569-61.027 72.542-40.357" stroke="#09D8EA" stroke-width=".696" stroke-miterlimit="10"/><path d="M889.822 1054.47c-113.145 52.88-307.902-48.46-455.917-180.456-94.31-84.098-151.656-194.032-159.025-293.953-5.991-81.26 21.805-145.783 59.485-207.757 131.309-215.983 449.122-62.485 603.895 107.322 59.057 64.798 92.32 129.342 78.42 176.641-50.004 170.193-324.781-70.916-329.373-79.753-5.642-10.863-11.845-52.73 67.748-34.802" stroke="#07E2EF" stroke-width=".696" stroke-miterlimit="10"/><path d="M887.616 1045.86c-106.538 49.11-299.407-37.21-449.455-163.148-93.853-78.782-159.009-181.775-176.837-281.913-14.787-81.466 2.434-154.744 40.094-226.472 126.129-240.237 473.962-81.296 643.188 95.127 64.464 67.21 101.714 135.36 88.534 185.276-47.627 180.42-335.851-72.514-338.907-78.406-3.766-7.241-18.121-44.433 62.958-29.254" stroke="#04EBF5" stroke-width=".696" stroke-miterlimit="10"/><path d="M885.424 1037.24c-99.932 45.36-290.868-26.06-442.993-145.831-93.39-73.533-166.11-169.548-194.645-269.881-23.384-81.69-17.084-163.296 20.704-245.187 121.502-263.345 498.76-100.134 682.48 82.932 69.85 69.602 111.12 141.352 98.65 193.902-45.2 190.593-346.903-74.114-348.438-77.059-1.876-3.622-24.392-36.144 58.169-23.707" stroke="#02F5FA" stroke-width=".696" stroke-miterlimit="10"/><path d="M883.222 1028.62c-195.36 87.07-809.675-256.302-647.664-650.279C397.569-15.635 1108.84 450.907 1066.1 651.615c-42.75 200.707-357.978-75.711-357.978-75.711s-30.668-27.847 53.38-18.16" stroke="#0FF" stroke-width=".696" stroke-miterlimit="10"/></svg>