<svg viewBox="0 0 1920 433" fill="none" xmlns="http://www.w3.org/2000/svg"><g opacity=".72" stroke-miterlimit="10"><path d="M-661 321.903s221.197-198.529 1256.213-41.421C1630.23 437.59 2184.39 156.329 2300.19 7.426" stroke="#FCEE21"/><path d="M-656.836 326.713s158.156-144.064 848.745-106.255c119.493 6.398 254.704 20.435 406.751 42.979 616.2 91.501 1076.01 55.223 1350.83-37.878 189.65-63.524 311.36-152.06 354.99-208.153" stroke="#FCE821"/><path d="M-652.658 331.511s155.398-143.719 847.036-123.064c120.071 3.309 255.875 15.967 407.743 37.96 613.329 89.033 1085.589 78.458 1351.439-9.293 188.19-62.118 314.5-157.356 355.22-209.712" stroke="#FBE321"/><path d="M-648.48 336.313s152.64-143.361 845.34-139.886c120.65.221 257.047 11.5 408.722 32.927C1216.05 315.933 1700.95 331.57 1957.64 248.631c186.86-60.38 317.65-162.665 355.46-211.283" stroke="#FBDD20"/><path d="M-644.302 341.109s149.882-143.002 843.63-156.708c121.243-2.868 258.206 7.032 409.701 27.908C1216.63 296.42 1714.2 338.337 1961.69 260.17c185.54-58.616 320.8-167.96 355.7-212.842" stroke="#FBD720"/><path d="M-640.124 345.922s147.208-141.126 841.934-173.53c121.837-5.681 259.378 2.565 410.695 22.889 604.725 81.643 1114.985 149.911 1353.275 76.431 184.24-56.809 323.93-173.254 355.92-214.4" stroke="#FAD220"/><path d="M-635.946 350.72s144.491-140.657 840.224-190.352c122.429-8.742 260.55-1.916 411.673 17.857C1217.81 257.399 1740.79 352.071 1969.83 283.239c182.95-54.976 327.07-178.563 356.16-215.958" stroke="#FACC20"/><path d="M-631.782 355.518s141.775-140.23 838.528-207.174c123.022-11.817 261.722-6.384 412.666 12.837C1218.4 237.901 1754.12 359.021 1973.9 294.779c181.68-53.113 330.21-183.857 356.39-217.515" stroke="#FAC620"/><path d="M-627.604 360.332s139.072-139.872 836.818-223.997c123.602-14.905 262.881-10.851 413.645 7.805 596.121 74.252 1144.591 221.9 1355.101 162.168 180.41-51.197 333.36-189.152 356.63-219.074" stroke="#FAC120"/><path d="M-623.426 365.13s136.342-139.569 835.122-240.805c124.194-17.994 264.053-15.319 414.638 2.785C1219.59 198.894 1780.84 373.141 1982.05 317.862c179.17-49.239 336.49-194.461 356.86-220.632" stroke="#F9BB1F"/><path d="M-619.248 369.929s133.612-139.307 833.412-257.627c124.787-21.097 265.225-19.787 415.617-2.234C1220.17 179.384 1794.22 380.298 1986.1 329.39c177.94-47.212 339.64-199.756 357.08-222.19" stroke="#F9B51F"/><path d="M-615.07 374.729s130.868-139.1 831.717-274.449c125.366-24.213 266.396-24.254 416.609-7.267C1220.78 159.874 1807.63 387.525 1990.18 340.92c176.73-45.116 342.79-205.051 357.32-223.748" stroke="#F9AF1F"/><path d="M-610.905 379.541S-483.071 239.366 219.101 88.27C345.005 60.72 486.67 59.548 636.69 75.984c584.65 64.393 1184.35 318.862 1357.53 276.476 175.54-42.952 345.93-210.346 357.56-225.306" stroke="#F8AA1F"/><path d="M-606.728 384.338s125.077-139.83 828.311-308.093c126.483-30.638 268.726-33.19 418.581-17.305C1221.95 120.865 1834.49 402.222 1998.32 364c174.37-40.69 349.07-215.654 357.78-226.865" stroke="#F8A41F"/><path d="M-602.55 389.138s122.319-139.472 826.601-324.915c127.062-33.727 269.899-37.657 419.56-22.338C1222.53 101.342 1847.94 409.67 2002.37 375.515c173.21-38.305 352.2-220.949 358.02-228.422" stroke="#F89E1E"/><path d="M-598.372 393.948s119.561-139.114 824.905-341.724C354.188 15.408 497.604 10.1 647.086 24.868 1223.13 81.87 1861.41 417.25 2006.45 387.08c172.08-35.782 355.35-226.244 358.26-229.994" stroke="#F7991E"/><path d="M-594.194 398.747S-477.39 259.978 229.001 40.201C849.545-152.868 1839.54 431.715 2010.51 398.609 2181.48 365.502 2369 167.056 2369 167.056" stroke="#F7931E"/><path d="M-584.101 400.816c2.578-1.434 136.273-130.358 817.721-339.931 67.233-20.421 138.369-32.638 211.779-37.657C1032.16-16.925 1827.1 409.723 1996.25 377.692c173.11-33.162 357.92-220.604 357.92-220.604" stroke="#EE8D25"/><path d="M-574.007 402.882c5.143-2.868 155.066-124.139 812.26-321.317 66.82-20.048 137.169-32.43 209.187-38.111C1008.83-.808 1796.05 391.313 1981.99 356.773c175.24-33.217 357.36-209.67 357.36-209.67" stroke="#E5862C"/><path d="M-563.914 404.954c7.721-4.302 174.274-116.624 806.786-302.702 66.448-19.552 135.97-32.21 206.596-38.553C985.487 15.536 1765.08 373.406 1967.73 335.86c177.45-32.872 356.81-198.722 356.81-198.722" stroke="#DC8034"/><path d="M-553.821 407.02c10.3-5.736 193.523-108.958 801.313-284.087 66.075-19.042 134.77-31.962 204.002-38.995C962.115 32.08 1734.04 355.12 1953.48 314.94c179.59-32.872 356.24-187.787 356.24-187.787" stroke="#D37A3B"/><path d="M-543.727 409.088c12.878-7.17 212.841-101.14 795.852-265.473 65.703-18.518 133.57-31.7 201.397-39.435C938.744 48.846 1703.01 336.808 1939.21 294.036c181.73-32.914 355.67-176.853 355.67-176.853" stroke="#CA7342"/><path d="M-533.635 411.158c15.444-8.604 232.201-93.17 790.379-246.858 65.344-17.994 132.356-31.424 198.804-39.891C915.357 65.863 1671.97 318.457 1924.95 273.106c183.85-32.955 355.11-165.905 355.11-165.905" stroke="#C16D49"/><path d="M-523.541 413.225c18.022-10.039 251.615-85.049 784.904-228.244 64.986-17.442 131.144-31.121 196.212-40.331C891.986 83.138 1640.92 300.089 1910.69 252.187c185.99-33.024 354.55-154.97 354.55-154.97" stroke="#B86650"/><path d="M-513.448 415.291c20.6-11.472 271.07-76.775 779.43-209.628 64.627-16.892 129.93-30.777 193.62-40.774C868.614 100.69 1609.85 281.707 1896.42 231.282c188.12-33.107 353.99-144.022 353.99-144.022" stroke="#AF6058"/><path d="M-503.354 417.36c23.178-12.906 290.581-68.323 773.969-191.014 64.283-16.312 128.731-30.404 191.028-41.228C845.298 118.519 1578.81 263.3 1882.18 210.352c190.24-33.203 353.43-133.088 353.43-133.088" stroke="#A55A5F"/><path d="M-493.262 419.429c25.744-14.34 310.134-59.705 768.496-172.386 63.938-15.719 127.517-29.99 188.421-41.669C821.98 136.679 1547.73 244.878 1867.9 189.448c192.37-33.299 352.87-122.153 352.87-122.153" stroke="#9C5366"/><path d="M-483.168 421.482c28.322-15.774 329.728-50.921 763.022-153.771 63.593-15.098 126.317-29.521 185.829-42.11 333.05-70.474 1050.887.22 1387.947-57.071 194.44-33.755 352.3-111.206 352.3-111.206" stroke="#934D6D"/><path d="M-473.075 423.555c30.901-17.208 349.363-41.945 757.562-135.156 63.262-14.451 125.145-28.984 183.237-42.552 307.858-71.908 1017.806-38.415 1371.666-98.23 196.57-33.824 351.73-100.271 351.73-100.271" stroke="#8A4774"/><path d="M-462.982 425.622c33.465-18.643 369.025-32.79 752.087-116.542 62.932-13.761 123.988-28.377 180.645-43.007 282.764-72.983 984.72-77.037 1355.38-139.375 198.7-33.879 351.17-89.323 351.17-89.323" stroke="#81407B"/><path d="M-452.888 427.688c36.043-20.076 388.729-23.454 746.613-97.926 62.614-13.031 122.856-27.674 178.038-43.448C729.597 212.6 1423.4 170.641 1810.86 105.779c200.83-33.947 350.62-78.388 350.62-78.388" stroke="#783A83"/><path d="M-442.795 429.755c38.622-21.51 408.447-13.912 741.152-79.312 62.311-12.244 121.782-26.846 175.447-43.889C706.887 232.495 1392.36 152.259 1796.6 84.861c202.96-34.003 350.05-67.455 350.05-67.455" stroke="#6F338A"/><path d="M-432.701 431.826c49.501-27.577 598.288 5.088 908.533-105.042C786.076 216.655 2131.83 7.426 2131.83 7.426" stroke="#662D91"/></g></svg>