<svg viewBox="0 0 321 647" fill="none" preserveAspectRatio="xMinYMin meet" xmlns="http://www.w3.org/2000/svg"><path d="M-734.162 96.918c131.205-160.656 525.346-25.095 754.239 62.819 183.108 70.33 246.459 231.537 141.497 360.07-83.968 102.822-270.794 140.559-417.283 84.296-117.189-45.015-157.737-148.184-90.555-230.441 53.74-65.803 173.31-89.957 267.06-53.949 75.003 28.806 24.432 156.976-57.253 138.45" stroke="#2E3192" stroke-width=".696" stroke-miterlimit="10"/><path d="M-727.599 101.073c127.648-155.896 512.133-28.726 739.307 55.279 179.923 67.149 245.815 221.654 150.038 346.114-76.557 99.597-249.361 134.421-390.612 87.614-107.102-35.488-166.159-127.486-117.256-208.012 13.529-22.282 35.307-40.021 63.046-53.929 52.796-26.463 139.922-27.93 198.076-5.592 71.434 27.438 25.233 149.699-56.214 133.353" stroke="#2C3B97" stroke-width=".696" stroke-miterlimit="10"/><path d="M-721.026 105.222C-596.934-45.909-221.659 72.267 3.349 152.953c177.088 63.499 245.162 211.763 158.59 332.157-69.136 96.379-228.049 127.535-363.941 90.938-97.707-26.317-174.291-107.157-143.956-185.582 8.415-21.75 25.247-39.399 49.751-54.997 48.366-30.787 150.188-31.321 205.432-10.096 67.856 26.063 26.024 142.43-55.175 128.25" stroke="#2A459C" stroke-width=".696" stroke-miterlimit="10"/><path d="M-714.464 109.38C-593.928-36.985-228.126 72.516-5.02 149.562c174.047 60.107 244.52 201.874 167.141 318.209-61.715 93.16-207.21 119.777-337.26 94.255-89.446-17.555-182.416-87.35-170.657-163.152 3.317-21.378 15.193-38.987 36.456-56.072 44.197-35.509 160.445-34.706 212.79-14.601 64.287 24.696 26.823 135.155-54.137 123.154" stroke="#274EA2" stroke-width=".696" stroke-miterlimit="10"/><path d="M-707.89 113.535c116.978-141.606 473.289-40.764 694.512 32.642 170.977 56.734 243.865 191.984 175.692 304.252-54.294 89.936-195.458 130.069-310.589 97.579-84.181 3.931-190.967-68.088-197.358-140.722-1.866-21.185 5.063-38.788 23.162-57.14 40.057-40.62 170.711-38.096 220.145-19.105 60.719 23.321 27.625 127.879-53.097 118.058" stroke="#2558A7" stroke-width=".696" stroke-miterlimit="10"/><path d="M-701.329 117.686c113.432-136.84 460.201-44.644 679.581 25.094 167.887 53.37 243.222 182.1 184.234 290.296-46.874 86.717-176.632 127.439-283.918 100.896-75.919 16.174-200.361-49.209-224.059-118.292-7.243-21.12-5.222-38.759 9.876-58.215 35.738-46.076 180.978-41.481 227.503-23.611 57.14 21.948 28.425 120.604-52.048 112.962" stroke="#2362AC" stroke-width=".696" stroke-miterlimit="10"/><path d="M-694.755 121.842C-584.88-10.232-247.662 73.334-30.106 139.388c164.778 50.027 242.578 172.211 192.785 276.348C123.227 499.227 4.884 540.552-94.558 519.948c-67.666 28.41-210.731-30.414-250.76-95.862-12.892-21.081-15.691-38.844-3.418-59.283 31.071-51.78 191.234-44.872 234.849-28.115 53.571 20.58 29.226 113.335-51.009 107.859" stroke="#216CB1" stroke-width=".696" stroke-miterlimit="10"/><path d="M-688.183 126C-581.864-1.316-254.227 73.656-38.465 136.005 123.174 182.71 203.157 298.271 162.87 398.396 130.588 478.62 23.913 520.59-67.695 505.933c-59.414 40.647-221.918-11.418-277.461-73.433-18.8-20.987-26.342-39-16.713-60.357 25.978-57.646 201.501-48.257 242.206-32.62 50.002 19.206 30.027 106.059-49.97 102.763" stroke="#1F76B6" stroke-width=".696" stroke-miterlimit="10"/><path d="M-681.62 130.148c102.762-122.55 420.778-56.158 634.786 2.457 158.481 43.406 240.928 152.385 209.887 248.443-24.893 77.006-120.121 119.57-203.895 110.853-51.162 52.883-233.578 7.926-304.161-51.003-24.876-20.77-37.155-39.173-30.008-61.425 20.412-63.577 211.767-51.648 249.563-37.124 46.433 17.831 30.827 98.783-48.932 97.667" stroke="#1C7FBC" stroke-width=".696" stroke-miterlimit="10"/><path d="M-675.047 134.304c99.205-117.79 407.582-59.944 619.854-5.091C100.11 169.348 185.052 271.723 163.236 363.7 145.734 437.496 61.941 480.641-13.978 477.878c-42.91 65.119-245.419 27.615-330.863-28.574-31.048-20.419-48.107-39.335-43.302-62.493 14.404-69.495 222.023-55.032 256.919-41.629 42.855 16.464 31.628 91.515-47.892 92.571" stroke="#1A89C1" stroke-width=".696" stroke-miterlimit="10"/><path d="M-668.484 138.46c95.648-113.025 394.367-63.694 604.922-12.632 152.097 36.884 239.573 132.634 226.98 220.531-10.11 70.585-82.458 114.318-150.542 117.494-34.658 77.356-257.243 47.611-357.564-6.144-37.237-19.955-59.149-39.473-56.597-63.567 7.997-75.348 232.289-58.423 264.276-46.141 39.286 15.09 32.428 84.239-46.854 87.468" stroke="#1893C6" stroke-width=".696" stroke-miterlimit="10"/><path d="M-661.911 142.61c92.092-108.26 381.112-67.416 589.99-20.18 148.881 33.662 238.9 122.765 235.532 206.581-2.709 67.382-63.622 111.696-123.871 120.819-26.406 89.593-268.95 67.826-384.275 16.286-43.404-19.402-70.281-39.569-69.892-64.636 1.262-81.107 242.556-61.807 271.633-50.644 35.717 13.715 33.229 76.962-45.805 82.372" stroke="#169DCB" stroke-width=".696" stroke-miterlimit="10"/><path d="M-655.34 146.765c88.536-103.5 367.829-71.088 575.06-27.728 145.635 30.477 238.236 112.904 244.083 192.626 4.701 64.177-44.786 109.072-97.191 124.135-18.144 101.829-280.502 88.197-410.976 38.716-49.539-18.787-81.461-39.627-83.186-65.711-5.732-86.756 252.812-65.197 278.979-55.148 32.148 12.347 34.03 69.687-44.765 77.275" stroke="#14A7D0" stroke-width=".696" stroke-miterlimit="10"/><path d="M-648.777 150.924c84.979-98.735 354.537-74.725 560.129-35.269 142.38 27.318 237.593 103.041 252.624 178.669 12.123 60.981-25.959 106.444-70.52 127.453-9.891 114.065-291.901 108.668-437.676 61.145-55.624-18.131-92.672-39.643-96.482-66.778-12.933-92.295 263.079-68.582 286.336-59.654 28.57 10.974 34.831 62.419-43.726 72.18" stroke="#12B1D5" stroke-width=".696" stroke-miterlimit="10"/><path d="M-642.204 155.07c81.423-93.968 341.205-78.305 545.197-42.817 139.105 24.196 236.96 93.179 261.175 164.721 19.555 57.782-7.122 103.82-43.849 130.776-1.639 126.302-303.157 129.206-464.377 83.576-61.657-17.456-103.91-39.617-109.777-67.854-20.282-97.719 273.336-71.973 293.693-64.158 25.001 9.6 35.622 55.143-42.687 67.077" stroke="#0FBADB" stroke-width=".696" stroke-miterlimit="10"/><path d="M-635.641 159.227c77.866-89.21 327.875-81.829 530.265-50.365 135.813 21.116 236.358 83.316 269.726 150.765 27.007 54.577 11.715 101.198-17.167 134.094 6.613 138.538-314.293 149.788-491.078 106.004-67.66-16.76-115.168-39.555-123.062-68.921-27.729-103.042 283.602-75.357 301.05-68.663 21.432 8.232 36.422 47.867-41.648 61.981" stroke="#0DC4E0" stroke-width=".696" stroke-miterlimit="10"/><path d="M-629.068 163.376c74.309-84.443 314.517-85.29 515.333-57.906 132.521 18.07 235.755 73.446 278.278 136.809 34.468 51.372 30.551 98.575 9.504 137.417 14.865 150.775-325.327 170.397-517.779 128.435-73.632-16.052-126.425-39.466-136.356-69.989-35.244-108.274 293.868-78.749 308.406-73.168 17.853 6.858 37.222 40.592-40.61 56.886" stroke="#0BCEE5" stroke-width=".696" stroke-miterlimit="10"/><path d="M-622.496 167.533c70.753-79.678 301.161-88.682 500.402-65.454 129.23 15.065 235.172 63.561 286.819 122.86 41.939 48.152 39.614 95.215 36.175 140.734C188.53 529.73-135.381 556.69-343.58 516.538c-79.574-15.345-137.681-39.342-149.651-71.064-42.816-113.427 304.124-82.14 315.763-77.672 14.285 5.49 38.023 33.322-39.56 51.788" stroke="#09D8EA" stroke-width=".696" stroke-miterlimit="10"/><path d="M-615.933 171.69c67.196-74.919 287.807-91.997 485.47-72.995 125.94 12.103 234.599 53.662 295.371 108.904 49.42 44.925 61.028 93.304 62.856 144.058 6.374 176.878-347.154 211.648-571.181 173.294-85.486-14.638-148.937-39.196-162.946-72.132-50.407-118.509 314.391-85.523 323.11-82.176 10.716 4.116 38.824 26.047-38.522 46.686" stroke="#07E2EF" stroke-width=".696" stroke-miterlimit="10"/><path d="M-609.36 175.839c63.639-70.153 274.454-95.228 470.538-80.543 122.652 9.19 234.153 43.663 303.922 94.948 56.999 41.613 82.361 90.956 89.527 147.375 24.005 188.964-357.977 232.286-597.882 195.724-91.388-13.931-160.191-39.03-176.24-73.206-58.007-123.531 324.657-88.915 330.466-86.681 7.147 2.741 39.624 18.77-37.483 41.59" stroke="#04EBF5" stroke-width=".696" stroke-miterlimit="10"/><path d="M-602.797 179.995c60.083-65.386 261.125-98.377 455.607-88.09 119.395 6.317 233.51 33.779 312.473 80.998 64.42 38.388 103.596 88.312 116.198 150.693 40.541 200.597-368.749 252.921-624.583 218.153-97.269-13.218-171.446-38.843-189.535-74.274-65.614-128.501 334.914-92.299 337.823-91.185 3.569 1.374 40.426 11.501-36.443 36.493" stroke="#02F5FA" stroke-width=".696" stroke-miterlimit="10"/><path d="M-596.225 184.151C-477.893 57.255 230.919 17.188 308.344 309.578c77.425 292.39-780.893 298.658-854.114 165.234-73.22-133.423 345.18-95.69 345.18-95.69s41.226 4.226-35.404 31.398" stroke="#0FF" stroke-width=".696" stroke-miterlimit="10"/></svg>