<svg viewBox="0 0 1920 583" fill="none" xmlns="http://www.w3.org/2000/svg"><g clip-path="url(#clip0_2:283)" stroke="#2EA7E0" stroke-width=".552" stroke-miterlimit="10"><path d="M2858.03 897.472c3.68-270.289-131-540.483-373.37-749.007-68.96-59.324-149.83-115.418-251.81-141.44-294.66-75.175-609.31 89.162-857.06 182.471-298.97 112.593-594.57 230.591-905.866 325.605-174.765 53.344-380.027 98.618-549.083 36.703-171.189-62.703-236.33-208.705-307.104-335.849-82.462-148.156-196.023-290.874-362.72-397.561-166.697-106.688-392.047-174.039-615.197-156.673-174.75 13.602-333.98 76.519-479.39 146.631-382.06 184.23-706.64 428.124-943.99 709.329"/><path d="M2867.58 885.787c3.26-238.885-115.16-472.684-325.14-673.202-19.5-18.623-39.58-36.938-60.52-54.751-68.85-58.514-149.03-113.893-249.56-140.118-290.76-75.932-600.6 79.813-848 169.775-219.34 79.759-437.133 163.975-662.661 240.206-78.241 26.554-157.158 52.128-237.081 76.252-173.368 52.321-376.197 96.987-543.99 37.961-169.898-59.771-237.157-200.124-309.884-322.289C-454.017 77.275-568.885-59.9-735.267-162.473c-57.929-35.711-122.754-66.839-191.996-91.539-129.557-46.244-274.597-70.016-418.707-59.206-173.12 12.984-331.19 73.352-475.67 140.266-292.5 135.374-550.98 303.411-764.06 496.979-63.6 57.757-123.13 117.773-178.29 179.89"/><path d="M2877.12 874.114c3.16-230.921-121.58-451.769-337.52-653.001-19.61-18.261-39.56-36.341-60.43-53.887-68.76-57.693-148.23-112.37-247.34-138.807-286.87-76.7-591.85 70.464-838.92 157.089-217.04 76.092-432.928 158.08-658.337 232.701-77.67 25.926-156 50.956-235.278 74.611-171.97 51.308-372.38 95.355-538.897 39.219-168.606-56.851-237.983-191.553-312.648-308.73-87.045-136.536-203.249-268.168-369.301-366.615-57.824-34.272-122.334-64.153-191.11-87.85-128.639-44.39-272.339-67.266-415.089-56.968-171.48 12.376-328.38 70.186-471.94 133.892-290.76 128.85-547.54 287.654-761.24 472.321-63.78 55.102-123.7 112.486-179.47 172.087"/><path d="M2886.68 862.431c3.03-222.958-127.92-430.853-349.91-632.8-19.69-17.92-39.52-35.754-60.32-53.024-68.65-56.883-147.45-110.834-245.1-137.484-282.96-77.457-583.07 61.125-829.87 144.392-214.69 72.436-428.939 151.812-653.987 225.207-77.189 25.18-154.844 49.784-233.49 72.969-170.574 50.285-368.565 93.725-533.79 40.477-167.313-53.93-238.809-182.971-315.427-295.17-89.343-130.726-206.854-256.815-372.575-351.147-57.735-32.833-121.914-61.467-190.224-84.173-127.747-42.534-270.077-64.515-411.487-54.719-169.84 11.769-325.57 67.021-468.21 127.518-289.03 122.336-544.1 271.899-758.42 447.675-63.95 52.448-124.26 107.198-180.64 164.294"/><path d="M2896.22 850.757c2.93-214.995-134.19-409.959-362.3-612.599-19.79-17.568-39.51-35.168-60.23-52.16-68.57-56.062-146.66-109.31-242.87-136.174-279.05-78.213-574.24 51.809-820.8 131.707-212.33 68.801-424.814 145.8-649.667 217.703-76.648 24.518-153.672 48.61-231.687 71.327-169.177 49.271-364.734 92.104-528.697 41.735-166.022-50.999-239.635-174.391-318.206-281.611-91.642-124.916-210.461-245.472-375.866-335.679-57.629-31.405-121.478-58.78-189.337-80.495-126.83-40.668-267.8-61.754-407.88-52.48-168.22 11.151-322.77 63.855-464.49 121.143-287.29 115.812-540.65 256.143-755.61 423.017-64.14 49.794-124.82 101.912-181.82 156.492"/><path d="M2905.76 839.075c2.82-207.031-140.4-389.075-374.68-592.397-19.86-17.227-39.5-34.571-60.12-51.297-68.47-55.252-145.88-107.785-240.65-134.852-275.15-78.97-565.38 42.503-811.75 119.021-209.91 65.198-420.645 139.798-645.317 210.209-76.108 23.857-152.516 47.438-229.885 69.685-167.779 48.248-360.918 90.474-523.604 42.993-164.729-48.077-240.447-165.809-320.986-268.051C-395.157 115.269-515.297.267-680.387-85.814c-57.524-29.966-121.057-56.094-188.451-76.817-125.91-38.814-265.552-59.004-404.262-50.231-166.58 10.543-319.96 60.699-460.76 114.778-285.55 109.3-537.21 240.388-752.78 398.372-64.33 47.139-125.4 96.624-183.01 148.688"/><path d="M2915.31 827.391c2.72-199.068-146.5-368.224-387.06-572.207-19.92-16.886-39.46-33.985-60.03-50.433-68.35-54.431-145.08-106.261-238.4-133.54-271.26-79.728-556.48 33.206-802.69 106.324-207.47 61.616-416.5 133.796-640.997 202.704-75.566 23.196-151.359 46.265-228.082 68.033-166.382 47.236-357.086 88.842-518.51 44.251-163.438-45.157-241.273-157.227-323.766-254.491C-380.449 124.725-501.896 15.266-666.671-66.7c-57.418-28.527-120.621-53.408-187.564-73.129-125.008-36.959-263.285-56.254-400.655-47.992-164.94 9.935-317.17 57.533-457.03 108.403-283.81 102.775-533.78 224.632-749.96 373.714-64.53 44.485-125.97 91.337-184.19 140.885"/><path d="M2924.85 815.718c2.6-191.105-152.56-347.384-399.45-552.006-19.98-16.555-39.45-33.399-59.93-49.57-68.26-53.621-144.3-104.736-236.18-132.218-267.35-80.495-547.53 23.942-793.61 93.639-205 58.055-412.33 127.805-636.672 195.209-75.026 22.547-150.202 45.082-226.28 66.392-164.985 46.212-353.271 87.211-513.418 45.508-162.145-42.225-242.099-148.656-326.529-240.931C-365.726 134.244-488.496 30.328-652.94-47.512c-57.313-27.099-120.201-50.722-186.678-69.452-124.092-35.104-261.012-53.493-397.052-45.743-163.3 9.317-314.36 54.368-453.32 102.03-282.06 96.26-530.34 208.875-747.15 349.067-64.71 41.831-126.54 86.049-185.37 133.082"/><path d="M2934.41 804.034c2.49-183.142-158.53-326.575-411.83-531.805-20.03-16.225-39.43-32.801-59.84-48.706-68.16-52.8-143.5-103.202-233.94-130.897-263.45-81.252-538.54 14.69-784.56 80.943-202.47 54.527-408.17 121.814-632.327 187.705-74.47 21.885-149.045 43.909-224.492 64.75-163.588 45.199-349.44 85.58-508.325 46.777-160.853-39.305-242.925-140.075-329.308-227.372C-351.018 143.742-475.11 45.369-639.224-28.357-696.432-54.016-758.988-76.39-825.015-94.13c-123.176-33.238-258.745-50.742-393.445-43.493-161.66 8.709-311.55 51.2-449.6 95.664-280.32 89.738-526.89 193.12-744.32 324.411-64.9 39.176-127.11 80.751-186.56 125.289"/><path d="M2943.95 792.349c2.38-175.179-164.43-305.799-424.21-511.604-20.08-15.895-39.41-32.215-59.74-47.843-68.07-51.99-142.72-101.677-231.7-129.586-259.56-82.008-529.52 5.469-775.5 68.258-199.91 51.03-403.99 115.844-627.998 180.21-73.929 21.246-147.888 42.737-222.689 63.108-162.19 44.176-345.623 83.95-503.232 48.035C-60.68 426.544-144.87 331.434-233.207 249.116c-103.104-95.878-228.502-188.707-392.3-258.307-57.104-24.22-119.345-45.349-184.906-62.096-122.274-31.384-256.487-47.981-389.827-41.255-160.02 8.091-308.75 48.035-445.87 89.29-278.57 83.224-523.45 177.364-741.5 299.765-65.08 36.521-127.68 75.463-187.73 117.486"/><path d="M2953.5 780.678c2.28-167.216-170.26-285.043-436.6-491.413-20.1-15.575-39.38-31.629-59.65-46.991-67.96-51.169-141.92-100.152-229.47-128.263-255.65-82.766-520.45-3.731-766.44 55.561-197.33 47.566-399.8 109.875-623.677 172.706-73.373 20.595-146.732 41.564-220.887 61.466-160.793 43.163-341.792 82.318-498.139 49.293-158.27-33.462-244.578-122.912-334.867-200.252C-321.618 162.717-448.339 75.432-611.821 9.946c-56.998-22.791-118.924-42.673-184.019-58.418-121.358-29.529-254.22-45.23-386.22-39.005-158.4 7.483-305.94 44.868-442.14 82.915-276.84 76.7-520.02 161.597-738.7 275.107-65.26 33.868-128.25 70.176-188.91 109.683"/><path d="M2963.04 768.993c2.18-159.252-176.01-264.33-448.98-471.212-20.13-15.255-39.36-31.032-59.54-46.127-67.87-50.359-141.14-98.628-227.24-126.952-251.74-83.523-511.35-12.889-757.38 42.875-194.7 44.133-395.61 103.905-619.332 165.212-72.818 19.955-145.575 40.391-219.084 59.825-159.396 42.139-337.977 80.697-493.031 50.55-156.978-30.531-245.389-114.341-337.647-186.681-107.686-84.269-235.714-166-398.866-227.371-56.893-21.353-118.488-39.987-183.133-54.73-120.441-27.674-251.957-42.48-382.607-36.767-156.77 6.876-303.16 41.703-438.43 76.551-275.09 70.187-516.57 145.842-735.86 250.451-65.46 31.213-128.83 64.888-190.09 101.879"/><path d="M2972.58 757.322c2.06-151.289-181.69-243.659-461.36-451.011-20.15-14.935-39.3-30.477-59.45-45.263-67.63-49.634-140.35-97.093-225-125.63-247.84-84.29-502.21-22.024-748.31 30.189-192.05 40.744-391.41 97.957-615.003 157.707-72.261 19.316-144.403 39.208-217.295 58.173-157.999 41.127-334.146 79.066-487.939 51.808C2.538 405.685-87.992 327.536-182.188 260.174c-109.985-78.459-239.319-154.648-402.156-211.893-56.788-19.913-118.067-37.3-182.247-51.052-119.539-25.808-249.699-39.72-378.989-34.517-155.13 6.257-300.34 38.536-434.7 70.176-273.34 63.663-513.13 130.086-733.04 225.804-65.64 28.559-129.39 59.601-191.27 94.087"/><path d="M2982.13 745.638c1.96-143.327-187.29-223.033-473.75-430.811-20.16-14.626-39.27-29.88-59.34-44.399-67.53-48.824-139.57-95.569-222.78-124.32-243.95-85.047-493.03-31.106-739.25 17.494-189.37 37.385-387.22 92.008-610.662 150.212-71.691 18.677-143.247 38.036-215.493 56.532-156.602 40.103-330.331 77.435-482.846 53.066-154.394-24.689-247.042-97.178-343.19-159.562-112.269-72.649-242.925-143.294-405.446-196.425-56.698-18.484-117.632-34.613-181.375-47.373-118.624-23.954-247.433-36.97-375.388-32.28-153.49 5.65-297.53 35.371-430.97 63.802-271.6 57.149-509.69 114.33-730.23 201.147-65.83 25.904-129.97 54.314-192.46 86.284"/><path d="M2991.67 733.953c1.85-135.363-192.82-202.447-486.13-410.609-20.18-14.317-39.26-29.294-59.25-43.536-67.43-48.014-138.77-94.044-220.54-122.997-240.04-85.804-483.83-40.157-730.19 4.807-186.66 34.07-383 86.071-606.337 142.708-71.135 18.037-142.09 36.863-213.691 54.89-155.204 39.09-326.499 75.804-477.753 54.324C44.678 391.782-50.088 324.943-148.19 267.538c-114.567-66.839-246.546-131.941-408.736-180.946-56.593-17.046-117.211-31.928-180.489-43.696-117.707-22.099-245.164-34.22-371.775-30.03-151.86 5.042-294.74 32.204-427.26 57.437-269.87 50.625-506.26 98.575-727.41 176.501-66.01 23.25-130.54 49.026-193.64 78.48"/><path d="M3001.23 722.282c1.74-127.4-198.28-181.917-498.52-390.419-20.17-14.008-39.22-28.708-59.14-42.673-67.32-47.203-137.99-92.52-218.32-121.686-236.13-86.561-474.57-49.154-721.13-7.889-183.93 30.787-378.79 80.144-602.008 135.214-70.579 17.408-140.932 35.69-211.887 53.248-153.808 38.067-322.684 74.174-472.66 55.582-151.81-18.836-248.694-80.026-348.749-132.442-116.85-61.03-250.151-120.588-412.011-165.478-56.488-15.607-116.776-29.241-179.603-40.008-116.805-20.244-242.91-31.458-368.162-27.78-150.21 4.423-291.93 29.038-423.53 51.062-268.12 44.112-502.81 82.819-724.58 151.844-66.21 20.584-131.11 43.728-194.83 70.677"/><path d="M3010.77 710.597c1.62-119.437-203.66-161.438-510.91-370.218-20.18-13.709-39.21-28.121-59.06-41.809-67.23-46.382-137.28-90.878-216.08-120.364-232.48-86.987-465.29-58.098-712.06-20.574-181.18 27.556-374.58 74.227-597.673 127.709-70.008 16.779-139.776 34.517-210.085 51.606-152.41 37.055-318.852 72.542-467.567 56.84-150.532-15.916-249.52-71.445-351.513-118.883-119.149-55.219-253.756-109.235-415.301-149.999-56.382-14.178-116.355-26.555-178.716-36.33-115.889-18.378-240.641-28.708-364.555-25.542-148.59 3.816-289.13 25.872-419.81 44.688-266.37 37.587-499.37 67.063-721.77 127.197-66.39 17.93-131.68 38.441-196.01 62.884"/><path d="M3020.32 698.925c1.52-111.473-208.97-141.013-523.28-350.017-20.18-13.41-39.2-27.524-58.96-40.945-67.12-45.573-136.48-89.354-213.84-119.043-228.57-87.754-456.01-66.999-702.99-33.26-178.4 24.37-370.35 68.322-593.343 120.215-69.437 16.161-138.619 33.346-208.297 49.965-151.013 36.031-315.036 70.911-462.474 58.108C107.895 370.964 6.804 321.085-97.156 278.626c-121.448-49.41-257.363-97.882-418.592-134.532-56.277-12.739-115.934-23.868-177.83-32.652-114.972-16.523-238.373-25.947-360.952-23.293-146.95 3.198-286.32 22.717-416.08 38.324-264.63 31.074-495.94 51.307-718.95 102.54-66.58 15.276-132.23 33.153-197.18 55.081"/><path d="M3029.86 687.241c1.42-103.521-214.2-120.641-535.68-329.816-20.16-13.112-39.16-26.938-58.86-40.082-67.03-44.751-135.7-87.829-211.62-117.731-224.68-88.512-446.7-75.826-693.93-45.956-175.61 21.224-366.13 62.426-589.004 112.71-68.866 15.543-137.461 32.162-206.493 48.323-149.616 35.019-311.206 69.291-457.382 59.366-147.948-10.063-251.157-54.281-357.071-91.763-123.731-43.61-260.968-86.539-421.882-119.063a2484.376 2484.376 0 00-176.943-28.975c-114.071-14.668-236.12-23.196-357.345-21.054-145.32 2.591-283.51 19.551-412.35 31.949-262.89 24.55-492.51 35.541-716.13 77.894-66.76 12.622-132.81 27.866-198.37 47.278"/><path d="M3039.42 675.557c1.3-95.557-219.37-100.344-548.06-309.625-20.15-12.824-39.15-26.341-58.76-39.219-66.93-43.941-134.91-86.305-209.38-116.409-220.78-89.279-437.37-84.599-684.88-58.642-172.81 18.123-361.89 56.553-584.668 105.216-68.296 14.925-136.306 30.99-204.691 46.671-148.219 33.995-307.39 67.66-452.289 60.624-146.657-7.142-251.984-45.711-359.851-78.203-126.03-37.801-264.574-75.186-425.157-103.585a2813.107 2813.107 0 00-176.056-25.286c-113.155-12.814-233.852-20.446-353.718-18.805-143.69 1.983-280.73 16.385-408.63 25.574-261.15 18.037-489.07 19.785-713.32 53.237-66.94 9.967-133.38 22.579-199.55 39.475"/><path d="M3048.96 663.884c1.18-87.595-224.45-80.111-560.44-289.424-20.13-12.537-39.14-25.755-58.67-38.356-66.84-43.12-134.13-84.78-207.14-115.098-216.89-90.046-428.02-93.298-675.82-71.338-170 15.063-357.65 50.679-580.344 97.712-67.724 14.306-135.134 29.816-202.888 45.028-146.822 32.983-303.574 66.03-447.181 61.883-145.364-4.211-252.81-37.13-362.63-64.644-128.328-31.991-268.194-63.833-428.447-88.117-55.961-8.432-114.642-15.809-175.17-21.608-112.239-10.948-231.583-17.685-350.116-16.566-142.044 1.364-277.914 13.219-404.904 19.21-259.41 11.513-485.63 4.029-710.49 28.58-67.14 7.313-133.95 17.29-200.73 31.671"/><path d="M3058.5 652.2c1.08-79.632-229.47-59.942-572.84-269.223-20.1-12.259-39.1-25.169-58.56-37.492-66.75-42.3-133.24-83.352-204.91-113.776-212.73-91.113-418.69-101.922-666.76-84.024-167.2 12.057-353.41 44.815-576.008 90.217-67.154 13.699-133.977 28.644-201.086 43.387-145.425 31.959-299.743 64.399-442.088 63.141-144.072-1.29-253.637-28.548-365.394-51.084-130.612-26.182-271.8-52.48-431.737-72.639-55.857-6.993-114.222-13.122-174.284-17.93-111.337-9.093-229.314-14.935-346.51-14.317-140.423.757-275.123 10.053-401.193 12.835-257.67 5-482.19-11.726-707.67 3.934-67.32 4.658-134.52 11.992-201.91 23.879"/><path d="M3068.05 640.528c.98-71.668-234.41-39.848-585.21-249.022-20.09-11.971-39.09-24.571-58.47-36.628-66.66-41.479-132.46-81.828-202.68-112.465-208.82-91.881-409.34-110.472-657.69-96.71-164.38 9.104-349.15 38.974-571.674 82.713-66.583 13.091-132.82 27.471-199.298 41.745-144.027 30.947-295.927 62.767-436.995 64.398-142.78 1.631-254.463-19.966-368.173-37.524-132.911-20.371-275.406-41.127-435.027-57.17-55.766-5.565-113.786-10.447-173.398-14.253-110.421-7.238-227.061-12.184-342.89-12.067-138.785.149-272.315 6.886-397.465 6.46-255.92-1.525-478.75-27.482-704.86-20.723-67.52 2.004-135.09 6.705-203.09 16.075"/><path d="M3077.59 628.845c.87-63.706-239.29-19.839-597.59-228.832-20.06-11.694-39.08-23.986-58.37-35.765-66.56-40.658-131.66-80.303-200.45-111.143-204.92-92.637-400.01-118.936-648.63-109.406-161.59 6.194-344.9 33.132-567.35 75.218-66.01 12.484-131.662 26.288-197.493 40.104-142.631 29.923-292.097 61.136-431.902 65.656-141.489 4.563-255.275-11.395-370.954-23.964-135.209-14.562-279.011-29.774-438.302-41.692-55.661-4.125-113.365-7.76-172.511-10.564-109.519-5.383-224.792-9.424-339.284-9.829-137.144-.469-269.504 3.721-393.744.086-254.18-8.038-475.3-43.238-702.03-45.37-67.7-.651-135.66 1.417-204.27 8.272"/><path d="M3087.15 617.163c.76-55.743-244.08.096-609.99-208.631-20.03-11.428-39.09-23.367-58.27-34.901-66.59-39.752-130.89-78.779-198.22-109.822-201.03-93.394-390.68-127.314-639.57-122.091-158.79 3.326-340.65 27.322-563.01 67.714-65.424 11.886-130.505 25.115-195.69 38.462-141.233 28.91-288.281 59.505-426.81 66.914-140.196 7.483-256.1-2.815-373.732-10.405-137.492-8.762-282.616-18.421-441.592-26.224-55.556-2.686-112.944-5.074-171.625-6.886-108.603-3.518-222.524-6.674-335.679-7.58-135.512-1.076-266.702.555-390.022-6.279-252.43-14.561-471.86-58.993-699.21-70.026-67.89-3.305-136.23-3.87-205.45.469"/><path d="M3096.69 605.488c.64-47.779-248.82 19.945-622.37-188.43-20-11.151-39.06-22.77-58.17-34.049-66.48-38.931-130.09-77.243-195.98-108.51-197.12-94.151-381.39-135.597-630.51-134.787-156.03.512-336.4 21.512-558.68 60.219-64.854 11.289-129.349 23.943-193.888 36.81-139.836 27.887-284.45 57.885-421.717 68.172-138.905 10.404-256.927 5.767-376.511 3.155-139.791-2.953-286.223-7.067-444.883-10.756-55.45-1.258-112.508-2.388-170.738-3.209-107.686-1.663-220.27-3.912-332.073-5.34-133.87-1.685-263.9-2.612-386.29-12.654-250.69-21.075-468.43-74.749-696.4-94.673-68.07-5.959-136.8-9.157-206.63-7.324"/><path d="M3106.24 593.804c.54-39.816-253.48 39.709-634.74-168.229-19.97-10.884-39.05-22.184-58.08-33.185-66.39-38.121-129.31-75.72-193.76-107.188-193.21-94.908-372.14-143.796-621.45-147.473-153.29-2.26-332.15 15.723-554.34 52.714-64.283 10.703-128.192 22.77-192.1 35.168-138.439 26.874-280.634 56.254-416.624 69.441C297.534 308.377 177.393 309.4 55.87 311.767c-142.074 2.857-289.827 4.285-448.172 4.722-55.345.181-112.088.299-169.852.469-106.785.192-218.002-1.162-328.453-3.091-132.233-2.303-261.103-5.778-382.563-19.029-248.95-27.599-464.99-90.515-693.58-119.33-68.25-8.613-137.37-14.444-207.82-15.127"/><path d="M3115.78 582.132c.44-31.853-258.07 59.377-647.14-148.028-19.92-10.617-39.03-21.597-57.97-32.321-66.29-37.3-128.51-74.195-191.52-105.878-189.31-95.675-362.93-151.897-612.37-160.158-150.6-4.989-327.89 9.946-550.02 45.22-63.697 10.117-127.035 21.598-190.298 33.527-137.041 25.851-276.802 54.622-411.53 70.698-136.321 16.257-258.58 22.919-382.056 30.275-144.373 8.667-293.448 15.638-451.462 20.19-55.24 1.621-111.652 2.985-168.981 4.147-105.868 2.047-215.733 1.588-324.847-.853-130.616-2.91-258.296-8.944-378.836-25.392-247.21-34.113-461.55-106.272-690.76-143.988-68.44-11.267-137.94-19.732-209-22.93"/><path d="M3125.34 570.448c.33-23.89-262.61 78.949-659.52-127.837-19.89-10.362-39-21.001-57.89-31.459-66.19-36.489-127.72-72.67-189.27-104.555-185.42-96.432-353.79-159.902-603.32-172.855-147.92-7.675-323.62 4.19-545.69 37.716-63.13 9.53-125.863 20.414-188.495 31.885-135.645 24.838-272.987 52.992-406.423 71.956-135.028 19.178-259.405 31.501-384.834 43.835-146.672 14.476-297.054 26.991-454.737 35.669a9786.67 9786.67 0 01-168.095 7.835c-104.952 3.912-213.48 4.349-321.241 1.396-128.974-3.528-255.485-12.109-375.125-31.767-245.47-40.626-458.11-122.027-687.95-168.634-68.62-13.922-138.51-25.03-210.17-30.733"/><path d="M3134.88 558.763c.21-15.926-267.07 98.426-671.9-107.636-19.85-10.106-38.99-20.414-57.78-30.594-66.09-35.669-126.93-71.136-187.06-103.244-181.51-97.189-344.69-167.813-594.25-185.541-145.29-10.319-319.37-1.546-541.35 30.222-62.54 8.954-124.707 19.241-186.693 30.243-134.247 23.814-269.155 51.36-401.329 73.214-133.737 22.098-260.232 40.082-387.614 57.394-148.955 20.287-300.66 38.345-458.028 51.137a6572.058 6572.058 0 01-167.208 11.513c-104.051 5.767-211.211 7.1-317.621 3.646-127.336-4.136-252.687-15.276-371.407-38.142-243.72-47.15-454.66-137.783-685.11-193.291-68.83-16.576-139.09-30.317-211.37-38.526"/><path d="M3144.42 547.091c.1-7.963-271.46 117.795-684.3-87.435-19.81-9.85-38.95-19.817-57.69-29.731-65.98-34.859-126.15-69.611-184.81-101.922-177.61-97.946-335.69-175.627-585.2-198.237-142.72-12.931-315.05-7.078-537.02 22.717-61.96 8.432-123.55 18.069-184.89 28.601-132.85 22.802-265.34 49.73-396.237 74.472-132.445 25.03-261.043 48.664-390.393 70.954-151.254 26.097-304.265 49.698-461.317 66.616-54.925 5.927-110.376 11.044-166.322 15.191-103.134 7.622-208.943 9.85-314.015 5.884-125.699-4.744-249.886-18.431-367.676-44.506-241.98-53.663-451.22-153.539-682.3-217.937-69-19.231-139.65-35.605-212.53-46.329"/><path d="M3153.97 535.407s-275.78 137.069-696.67-67.234c-420.89-204.302-565.78-424.734-1349-325.178C567.079 211.796 56.5 380.547-489.127 431.151c-224.492 20.819-459.77 11.012-674.363-42.748-240.23-60.187-447.78-169.294-679.48-242.594-69.2-21.885-140.21-40.892-213.72-54.132"/></g><defs><clipPath id="clip0_2:283"><path fill="#fff" d="M0 0h1920v583H0z"/></clipPath></defs></svg>