<svg viewBox="0 0 1920 553" fill="none" xmlns="http://www.w3.org/2000/svg"><g clip-path="url(#clip0_2:249)" stroke="#2EA7E0" stroke-width=".552" stroke-miterlimit="10"><path d="M3215 779.16c-148.6-101.44-303.96-194.356-470.44-262.601-53.98-22.127-109.45-41.726-167.12-50.494-117.6-17.88-236.85 10.043-355.75 13.789-151 4.764-302.85-31.045-436.51-101.289-100.56-52.858-213.71-129.528-327.47-148.768-103.34-17.479-214.52 77.622-306.04 114.728-93.74 38.001-198.579 46.096-297.577 26.547-51.862-10.244-102.306-28.066-148.818-53.238-44.477-24.076-83.224-68.882-135.953-33.668-17.428 11.641-29.477 29.578-44.456 44.241-52.056 50.953-143.087 54.936-199.391 8.718"/><path d="M3208.45 775.979c-145.23-102.801-298.99-196.69-464.55-264.685-55.13-22.679-111.77-41.683-170.46-51.468-70.81-11.712-142.35-7.371-214.13-1.197-49 4.212-98.1 9.284-147.16 10.702-96.9 2.794-194.15-9.298-286.87-34.763-54.21-14.893-106.86-34.37-157.04-58.238-35.25-16.684-71.9-36.01-109.5-54.828-52.87-26.39-107.62-51.748-163.25-67.988-19.97-5.852-40.05-10.53-60.15-13.603-83.09-12.65-171.12 40.924-250.29 80.337-21.23 10.616-41.82 20.215-61.52 27.249-81 29.177-169.329 36.498-254.823 23.79a555.004 555.004 0 01-43.883-8.331c-51.777-11.999-102.178-31.383-149.098-57.429-27.786-15.429-53.56-38.395-81.912-45.652-17.457-4.47-35.81-2.901-56.225 9.864-17.837 11.154-30.566 28.389-46.104 42.551-53.925 49.233-145.688 53.574-203.61 7.951"/><path d="M3201.89 772.807c-141.84-104.17-294-199.027-458.66-266.77-56.29-23.238-114.1-41.648-173.79-52.436-71.72-12.794-144.33-9.67-217.24-4.355-49.79 3.625-99.72 8.274-149.59 9.577-98.53 2.593-197.4-8.445-291.65-31.619-55.11-13.546-108.62-31.275-159.67-53.094-35.95-15.208-73.21-32.887-111.36-50.022-53.7-23.997-109.2-46.891-165.83-61.64-20.29-5.33-40.7-9.606-61.16-12.415-84.73-11.525-174.46 39.463-255.08 75.703-21.56 9.785-42.49 18.467-62.5 24.727-82.1 25.688-170.636 29.922-256.016 14.22a572.485 572.485 0 01-43.804-9.843c-51.698-13.753-102.056-34.699-149.377-61.626-28.037-15.96-54.248-39.04-83.13-46.655-17.801-4.692-36.462-3.359-57.192 8.747-18.26 10.666-31.655 27.192-47.751 40.859-55.788 47.515-148.296 52.214-207.823 7.192"/><path d="M3195.34 769.633c-138.46-105.53-289.03-201.369-452.76-268.855-57.45-23.789-116.43-41.604-177.13-53.409-72.63-13.883-146.31-11.97-220.35-7.515-50.57 3.03-101.32 7.257-152.03 8.46-100.13 2.386-200.63-7.593-296.42-28.467-56.01-12.206-110.32-28.324-162.3-47.951-36.61-13.826-74.52-29.757-113.21-45.215-54.54-21.605-110.78-42.035-168.4-55.287-20.61-4.807-41.36-8.682-62.16-11.232-86.37-10.401-177.9 37.787-259.87 71.075-21.92 8.904-43.16 16.755-63.49 22.213-83.141 22.335-171.952 23.345-257.202 4.642a590.256 590.256 0 01-43.726-11.354c-51.611-15.509-101.927-38.016-149.649-65.824-28.288-16.49-54.928-39.685-84.348-47.658-18.145-4.921-37.113-3.832-58.166 7.637-18.682 10.172-32.744 26.002-49.399 39.176-57.657 45.795-150.895 50.86-212.042 6.425"/><path d="M3188.79 766.451c-135.09-106.891-284.06-203.704-446.87-270.946-58.61-24.348-118.73-41.683-180.47-54.377-73.51-15.107-148.28-14.269-223.46-10.68-51.35 2.442-102.92 6.239-154.45 7.335-101.76 2.178-203.87-6.748-301.2-25.322-56.91-10.86-112.08-25.273-164.94-42.808-37.3-12.379-75.82-26.627-115.05-40.416-55.38-19.212-112.37-37.178-170.99-48.933-20.93-4.283-42.02-7.758-63.16-10.043-88-9.276-181.26 36.261-264.67 66.447-22.26 8.059-43.81 15.043-64.45 19.7-84.177 18.982-173.267 16.769-258.404-4.929-14.649-3.718-29.205-8.023-43.646-12.865-51.526-17.264-101.805-41.333-149.929-70.015-28.538-17.02-55.609-40.322-85.566-48.66-18.488-5.151-37.772-4.305-59.133 6.518-19.112 9.678-33.832 24.807-51.046 37.486-59.527 44.076-153.503 49.499-216.254 5.666"/><path d="M3182.24 763.278c-131.7-108.259-279.07-206.046-440.98-273.03-59.77-24.9-121.05-41.669-183.8-55.344-74.42-16.218-150.26-16.569-226.57-13.84-52.14 1.848-104.53 5.222-156.89 6.218-103.37 1.97-207.1-5.895-305.97-22.178-57.81-9.52-113.83-22.213-167.57-37.664-37.98-10.925-77.1-23.597-116.91-35.609-56.17-16.956-113.96-32.178-173.55-42.579-21.26-3.711-42.67-6.834-64.18-8.854-89.64-8.152-184.61 34.742-269.46 61.812-22.6 7.214-44.48 13.331-65.43 17.185-85.203 15.652-174.58 10.193-259.602-14.506-14.62-4.233-29.147-9.04-43.574-14.377-51.44-19.025-101.684-44.656-150.208-74.212-28.79-17.55-56.297-40.967-86.784-49.663-18.832-5.38-38.431-4.778-60.1 5.401-19.542 9.183-34.922 23.61-52.694 35.795-61.39 42.357-156.103 48.138-220.473 4.9"/><path d="M3175.69 760.098c-128.33-109.621-274.1-208.382-435.09-275.115-60.92-25.459-123.37-41.648-187.14-56.319-75.32-17.328-152.24-18.861-229.68-16.998-52.93 1.261-106.14 4.205-159.32 5.093-104.98 1.762-210.34-5.05-310.74-19.026-58.71-8.173-115.6-19.155-170.2-32.521-38.68-9.47-78.4-20.48-118.76-30.803-57.01-14.584-115.54-27.299-176.13-36.225-21.58-3.18-43.33-5.917-65.18-7.664-91.28-7.028-187.95 33.223-274.25 57.184-22.94 6.369-45.14 11.626-66.417 14.664-86.218 12.321-175.889 3.617-260.796-24.076-14.599-4.742-29.097-10.057-43.496-15.881-51.354-20.781-101.554-47.973-150.487-78.41-29.04-18.08-56.977-41.612-88.002-50.666-19.169-5.609-39.104-5.258-61.074 4.283-19.979 8.682-36.01 22.421-54.334 34.112-63.259 40.638-158.711 46.784-224.685 4.133"/><path d="M3169.13 756.926c-124.95-110.982-269.12-210.717-429.2-277.2-62.08-26.01-125.68-41.619-190.48-57.285-76.21-18.431-154.21-21.161-232.78-20.158-53.72.667-107.75 3.188-161.76 3.976-106.6 1.554-213.57-4.198-315.51-15.881-59.6-6.834-117.36-16.096-172.83-27.378-39.39-8.016-79.72-17.364-120.62-26.003-57.84-12.207-117.12-22.422-178.7-29.871-21.9-2.651-43.99-4.993-66.19-6.476-92.92-5.903-191.29 31.712-279.04 52.557-23.271 5.53-45.792 9.921-67.397 12.149-87.228 9.005-177.206-2.958-261.992-33.653-14.577-5.251-29.047-11.082-43.416-17.393-51.268-22.536-101.433-51.289-150.767-82.6-29.291-18.61-57.665-42.257-89.22-51.669-19.513-5.831-39.778-5.745-62.041 3.173-20.423 8.181-37.099 21.225-55.982 32.421-65.122 38.926-161.311 45.423-228.904 3.374"/><path d="M3162.59 753.753c-121.57-112.35-264.15-213.059-423.31-279.291-63.24-26.569-128.01-41.591-193.82-58.26-77.12-19.527-156.19-23.46-235.89-23.324-54.5.079-109.35 2.171-164.19 2.851-108.22 1.347-216.81-3.345-320.3-12.736-60.5-5.487-119.12-13.023-175.46-22.235-40.08-6.554-81.01-14.248-122.46-21.196-58.68-9.836-118.7-17.55-181.28-23.518-22.22-2.12-44.64-4.068-67.19-5.286-94.55-4.778-194.62 30.208-283.83 47.93-23.61 4.692-46.447 8.216-68.374 9.635-88.238 5.702-178.518-9.535-263.181-43.231-14.549-5.767-28.99-12.099-43.345-18.904-51.182-24.291-101.311-54.606-151.047-86.798-29.541-19.141-58.345-42.895-90.437-52.672-19.856-6.061-40.458-6.24-63.008 2.055-20.867 7.672-38.188 20.036-57.629 30.731-66.992 37.206-163.919 44.062-233.117 2.608"/><path d="M3156.03 750.572c-118.19-113.711-259.16-215.394-417.41-281.376-64.41-27.12-130.33-41.561-197.17-59.226-78.02-20.623-158.16-25.759-239-26.483-55.29-.516-110.96 1.161-166.62 1.734-109.83 1.139-220.05-2.5-325.07-9.585a3155.377 3155.377 0 01-178.08-17.099c-40.79-5.093-82.33-11.132-124.32-16.39-59.52-7.457-120.28-12.679-183.86-17.163-22.53-1.59-45.31-3.145-68.21-4.097-96.19-3.654-197.96 28.71-288.615 43.295-23.94 3.854-47.106 6.519-69.355 7.12-89.234 2.407-179.829-16.11-264.377-52.801-14.528-6.275-28.94-13.116-43.267-20.415-51.096-26.046-101.182-57.93-151.325-90.996-29.786-19.671-59.033-43.539-91.655-53.675-20.201-6.289-41.139-6.734-63.983.938-21.318 7.164-39.277 18.84-59.277 29.048-68.854 35.487-166.526 42.708-237.335 1.848"/><path d="M3149.48 747.398c-114.8-115.071-254.18-217.736-411.52-283.46-65.56-27.679-132.65-41.533-200.5-60.201-78.93-21.719-160.13-28.058-242.12-29.642-56.07-1.103-112.56.144-169.05.609-111.45.932-223.29-1.647-329.85-6.44-62.29-2.8-122.65-6.876-180.71-11.955-41.49-3.625-83.64-8.016-126.18-11.59-60.36-5.072-121.85-7.808-186.43-10.817-22.84-1.06-45.96-2.221-69.21-2.908-97.82-2.529-201.28 27.22-293.405 38.667-24.277 3.016-47.758 4.821-70.337 4.606-90.23-.874-181.139-22.686-265.574-62.378-14.505-6.791-28.889-14.133-43.187-21.927-51.011-27.801-101.061-61.246-151.598-95.186-30.036-20.201-59.714-44.184-92.873-54.678-20.544-6.519-41.819-7.235-64.95-.179-21.769 6.647-40.387 17.607-60.924 27.357-70.795 33.617-169.126 41.346-241.555 1.081"/><path d="M3142.93 744.226c-111.43-116.44-249.21-220.072-405.62-285.545-66.73-28.231-134.98-41.498-203.84-61.168-79.84-22.808-162.12-30.358-245.23-32.801-56.87-1.698-114.17-.874-171.49-.509-113.06.724-226.53-.795-334.62-3.295a6548.883 6548.883 0 01-183.34-6.812c-42.2-2.156-84.95-4.893-128.03-6.784-61.2-2.686-123.42-2.944-189.01-4.463-23.16-.537-46.61-1.296-70.21-1.719-99.47-1.404-204.62 25.738-298.206 34.04-24.606 2.185-48.41 3.131-71.318 2.085-91.225-4.14-182.457-29.262-266.77-71.949-14.477-7.299-28.832-15.157-43.109-23.438-50.924-29.556-100.938-64.563-151.877-99.384-30.286-20.731-60.401-44.821-94.09-55.681-20.881-6.748-42.508-7.743-65.917-1.289-22.228 6.124-41.476 16.411-62.572 25.673-72.658 31.899-171.734 39.986-245.767.315"/><path d="M3136.38 741.044c-108.06-117.801-244.24-222.414-399.74-287.637-67.88-28.789-137.3-41.461-207.18-62.142-80.74-23.896-164.09-32.65-248.34-35.96-57.64-2.285-115.77-1.891-173.92-1.633-114.67.516-229.76.05-339.39-.15-64.1-.115-126.2-.717-185.98-1.669-42.89-.688-86.26-1.77-129.88-1.977-62.05-.301-125 1.919-191.58 1.891-23.48-.007-47.27-.373-71.22-.537-101.1-.28-207.936 24.262-302.987 29.405-24.935 1.354-49.062 1.44-72.292-.43-92.221-7.4-183.768-35.838-267.966-81.526-14.456-7.815-28.783-16.175-43.038-24.95-50.838-31.318-100.809-67.879-152.156-103.581-30.537-21.261-61.082-45.466-95.308-56.684-21.225-6.97-43.202-8.252-66.891-2.407-22.68 5.595-42.565 15.215-64.22 23.983-74.52 30.172-174.334 38.632-249.986-.444"/><path d="M3129.83 737.871c-104.67-119.162-239.39-224.442-393.84-289.721-69.1-29.205-139.63-41.418-210.52-63.109-81.65-24.979-166.07-34.95-251.45-39.126-58.43-2.88-117.38-2.908-176.35-2.751-116.29.308-232.99.903-344.16 3.001-65 1.225-127.98 2.379-188.61 3.475-43.6.788-87.58 1.361-131.73 2.822-62.89 2.085-126.57 6.784-194.16 8.245-23.8.516-47.93.552-72.23.652-102.74.845-211.261 22.794-307.78 24.778-25.265.523-49.714-.251-73.274-2.944-93.216-10.652-185.079-42.414-269.155-91.096-14.434-8.324-28.732-17.192-42.959-26.462-50.752-33.073-100.687-71.196-152.435-107.772-30.788-21.791-61.77-46.11-96.526-57.686-21.569-7.2-43.89-8.768-67.859-3.525-23.137 5.065-43.653 14.019-65.86 22.292-76.382 28.446-176.94 37.271-254.198-1.21"/><path d="M3123.27 734.697c-101.29-120.53-234.4-226.777-387.95-291.805-70.26-29.757-141.95-41.376-213.85-64.076-82.56-26.061-168.05-37.25-254.56-42.286-59.22-3.467-118.99-3.925-178.79-3.875-117.91.107-236.23 1.748-348.94 6.146-65.89 2.572-129.75 5.473-191.24 8.618-44.3 2.27-88.88 4.484-133.58 7.629-63.74 4.477-128.15 11.64-196.74 14.598-24.12 1.039-48.58 1.469-73.23 1.841-104.37 1.97-214.587 21.326-312.575 20.151-25.601-.308-50.365-1.941-74.255-5.459-94.219-13.889-186.39-48.99-270.351-100.673-14.406-8.832-28.675-18.209-42.88-27.973-50.666-34.828-100.566-74.52-152.715-111.97-31.039-22.314-62.45-46.748-97.744-58.69-21.912-7.428-44.584-9.29-68.825-4.641-23.603 4.527-44.735 12.83-67.507 20.609-78.245 26.726-179.542 35.91-258.418-1.97"/><path d="M3116.73 731.518c-97.92-121.892-229.43-229.12-382.06-293.891-71.42-30.308-144.28-41.332-217.19-65.05-83.47-27.142-170.02-39.549-257.67-45.444-60-4.062-120.59-4.943-181.22-4.993-119.52-.1-239.47 2.6-353.71 9.291a7893.264 7893.264 0 00-193.87 13.761c-45.01 3.746-90.2 7.614-135.44 12.435-64.58 6.877-129.72 16.497-199.31 20.953-24.44 1.562-49.24 2.392-74.24 3.03-106.01 3.095-217.905 19.871-317.361 15.523-25.931-1.132-51.017-3.625-75.236-7.98-95.215-17.12-187.708-55.566-271.548-110.251-14.384-9.348-28.625-19.233-42.801-29.484-50.58-36.583-100.437-77.837-152.994-116.168-31.29-22.844-63.131-47.393-98.962-59.692-22.256-7.658-45.279-9.82-69.8-5.76-24.061 3.99-45.823 11.634-69.154 18.919-80.108 25.007-182.15 34.556-262.63-2.736"/><path d="M3110.17 728.344c-94.53-123.253-224.32-231.763-376.17-295.975-72.52-31.01-146.6-41.289-220.53-66.017-84.37-28.224-171.99-41.848-260.77-48.603-60.79-4.649-122.2-5.953-183.65-6.118-121.14-.308-242.71 3.453-358.49 12.443-67.7 5.258-133.29 11.669-196.51 18.904-45.71 5.236-91.5 10.745-137.28 17.235-65.43 9.269-131.3 21.354-201.9 27.306-24.74 2.085-49.9 3.317-75.24 4.22-107.643 4.219-221.232 18.417-322.156 10.888-26.261-1.963-51.676-5.308-76.211-10.494-96.218-20.344-189.019-62.142-272.744-119.822-14.355-9.856-28.574-20.25-42.729-30.995-50.494-38.339-100.315-81.154-153.274-120.359-31.54-23.374-63.818-48.037-100.172-60.695-22.593-7.88-45.974-10.35-70.767-6.87-24.52 3.447-46.897 10.488-70.802 17.23-81.927 23.452-184.75 33.194-266.849-3.496"/><path d="M3103.62 725.17c-91.16-124.621-219.34-234.105-370.28-298.067-73.67-31.561-148.92-41.246-223.86-66.991-85.29-29.298-173.97-44.141-263.89-51.769-61.57-5.244-123.81-6.97-186.09-7.236-122.75-.515-245.94 4.299-363.26 15.588-68.59 6.597-135.06 14.771-199.14 24.047-46.41 6.72-92.81 13.883-139.14 22.042-66.26 11.669-132.87 26.211-204.46 33.66-25.07 2.608-50.55 4.241-76.25 5.409-109.281 5.344-224.561 16.977-326.94 6.26-26.597-2.786-52.328-6.984-77.192-13.008-97.228-23.56-190.329-68.718-273.94-129.399-14.334-10.372-28.517-21.268-42.65-32.5-50.409-40.093-100.187-84.47-153.554-124.556-31.791-23.904-64.498-48.675-101.39-61.698-22.937-8.108-46.669-10.888-71.733-7.987C4.872 41.86-18.136 48.263-42.6 54.51c-83.79 21.733-187.357 31.834-271.068-4.262"/><path d="M3097.07 721.989c-87.77-125.981-214.36-236.44-364.38-300.151-74.83-32.12-151.25-41.196-227.2-67.958-86.2-30.373-175.95-46.44-267-54.929-62.36-5.831-125.41-7.987-188.51-8.359-124.37-.724-249.19 5.15-368.04 18.732-69.49 7.944-136.82 17.88-201.76 29.19-47.12 8.21-94.12 17.013-140.99 26.849-67.11 14.076-134.45 31.06-207.05 40.007-25.38 3.13-51.21 5.165-77.25 6.597-110.926 6.469-227.896 15.537-331.736 1.633-26.927-3.603-52.987-8.66-78.173-15.523-98.238-26.762-191.641-75.293-275.13-138.968-14.312-10.881-28.467-22.285-42.571-34.012-50.323-41.848-100.065-87.794-153.826-128.746-32.041-24.434-65.186-49.32-102.607-62.701-23.281-8.338-47.357-11.433-72.708-9.105-25.437 2.336-49.076 8.102-74.098 13.854-85.659 20.022-189.957 30.48-275.28-5.028"/><path d="M3090.52 718.816c-84.4-127.342-209.39-238.775-358.49-302.235-76-32.672-153.59-41.146-230.56-68.933-87.1-31.447-177.92-48.739-270.1-58.087-63.15-6.426-127.02-9.005-190.95-9.477-125.98-.932-252.42 5.995-372.82 21.884-70.38 9.283-138.58 20.988-204.39 34.333-47.81 9.7-95.43 20.151-142.84 31.648-67.95 16.476-136.03 35.91-209.61 46.361-25.71 3.653-51.87 6.089-78.26 7.787-112.562 7.593-231.229 14.097-336.53-3.002-27.264-4.427-53.64-10.336-79.155-18.037-99.256-29.964-192.959-81.87-276.326-148.546-14.284-11.397-28.417-23.31-42.493-35.523-50.236-43.611-99.943-91.111-154.105-132.945C111.599 59.08 78.024 34.08 40.066 20.334 16.44 11.767-7.986 8.357-33.61 10.112c-25.903 1.776-50.165 6.912-75.745 12.163-87.522 18.302-192.565 29.119-279.499-5.788"/><path d="M3083.97 715.644c-81.02-128.711-204.41-241.118-352.6-304.32-77.15-33.231-155.91-41.097-233.89-69.9-88.02-32.522-179.9-51.039-273.2-61.247-63.94-7.013-128.63-10.021-193.39-10.602-127.6-1.139-255.66 6.849-377.58 25.029-71.29 10.631-140.35 24.098-207.02 39.477-48.51 11.189-96.74 23.288-144.7 36.454-68.79 18.883-137.6 40.76-212.2 52.715-26.02 4.17-52.52 7.013-79.26 8.976-114.203 8.718-234.568 12.665-341.323-7.629-27.594-5.243-54.298-12.013-80.129-20.559-100.28-33.166-194.27-88.445-277.523-158.116-14.262-11.905-28.359-24.327-42.421-37.034-50.157-45.366-99.814-94.428-154.384-137.142C81.814 46.25 47.795 21.144 9.307 7.032-14.662-1.765-39.44-5.497-65.335-4.3c-26.361 1.21-51.254 5.716-77.393 10.48-89.391 16.583-195.165 27.758-283.711-6.555"/><path d="M3077.41 712.462c-77.63-130.072-199.43-243.453-346.7-306.412-78.32-33.782-158.25-41.039-237.23-70.874-88.93-33.589-181.88-53.338-276.32-64.413-64.72-7.607-130.23-11.038-195.82-11.719-129.21-1.346-258.89 7.701-382.36 28.174-72.18 11.97-142.11 27.213-209.66 44.62a3415.282 3415.282 0 00-146.54 41.261c-69.62 21.289-139.19 45.609-214.78 59.069-26.33 4.692-53.18 7.937-80.267 10.165-115.832 9.842-237.902 11.239-346.111-12.257-27.93-6.067-54.965-13.689-81.111-23.073-101.304-36.354-195.58-95.022-278.718-167.694-14.241-12.421-28.31-25.344-42.343-38.546-50.071-47.12-99.692-97.743-154.663-141.332C52 33.406 17.552 8.184-21.474-6.286c-24.305-9.018-49.434-13.08-75.616-12.45-26.813.645-52.343 4.528-79.033 8.79-91.261 14.864-197.773 26.397-287.931-7.314"/><path d="M3070.86 709.289c-74.26-131.433-194.46-245.796-340.81-308.496-79.47-34.341-160.57-40.989-240.57-71.841-89.85-34.657-183.84-55.638-279.42-67.572-65.51-8.195-131.85-12.049-198.26-12.844-130.83-1.554-262.12 8.546-387.13 31.325-73.09 13.317-143.88 30.33-212.29 49.764-49.9 14.176-99.35 29.563-148.4 46.06-70.45 23.697-140.76 50.452-217.34 65.423-26.66 5.208-53.843 8.854-81.286 11.347-117.471 10.967-241.239 9.821-350.896-16.884-28.266-6.884-55.623-15.358-82.091-25.588-102.336-39.541-196.892-101.597-279.908-177.271-14.212-12.93-28.259-26.361-42.264-40.057-49.985-48.876-99.57-101.06-154.942-145.53C22.215 20.57-12.67-4.767-52.227-19.595c-24.648-9.248-50.121-13.639-76.582-13.567-27.271.072-53.432 3.33-80.681 7.106-93.123 13.145-200.38 25.043-292.142-8.08"/><path d="M3064.31 706.115c-70.87-132.801-189.47-248.131-334.92-310.58-80.63-34.893-162.97-40.774-243.9-72.809-90.83-35.551-185.83-57.93-282.54-70.73-66.3-8.79-133.45-13.066-200.68-13.962-132.44-1.762-265.37 9.399-391.91 34.47-73.99 14.656-145.63 33.446-214.92 54.907-50.59 15.674-100.65 32.701-150.25 50.867-71.28 26.103-142.37 55.143-219.92 71.777-26.993 5.68-54.493 9.778-82.287 12.535-119.104 12.092-244.584 8.396-355.688-21.518-28.603-7.701-56.282-17.035-83.073-28.102-103.367-42.729-198.21-108.173-281.104-186.841-14.19-13.439-28.202-27.386-42.192-41.569-49.9-50.631-99.441-104.384-155.222-149.728C-7.584 7.747-42.9-17.697-82.993-32.89c-24.992-9.477-50.809-14.198-77.55-14.685-27.729-.502-54.52 2.135-82.328 5.415-94.993 11.426-202.98 23.682-296.362-8.846"/><path d="M3057.76 702.935c-67.5-134.163-184.5-250.466-329.03-312.666-81.79-35.451-165.29-40.738-247.24-73.782-91.74-36.633-187.8-60.229-285.65-73.89-67.08-9.377-135.05-14.083-203.11-15.086-134.06-1.97-268.61 10.244-396.69 37.615-74.88 16.003-147.38 36.561-217.54 60.05-51.29 17.171-101.92 35.931-152.11 55.673-72.06 28.639-143.95 60.008-222.49 78.131-27.307 6.203-55.151 10.702-83.295 13.725-120.745 13.216-247.931 6.977-360.481-26.146-28.94-8.517-56.948-18.704-84.047-30.624-104.406-45.909-199.521-114.749-282.3-196.418-14.169-13.954-28.152-28.403-42.113-43.08C101.85 124.051 52.344 68.736-3.838 22.517-37.377-5.096-73.122-30.655-113.752-46.206c-25.337-9.706-51.498-14.757-78.525-15.795-28.181-1.082-55.609.945-83.976 3.725-96.855 9.706-205.587 22.328-300.58-9.606"/><path d="M3051.21 699.762c-64.12-135.523-179.52-252.809-323.13-314.757-82.95-36.003-167.62-40.695-250.58-74.75-92.65-37.722-189.78-62.528-288.76-77.056-67.86-9.971-136.66-15.1-205.55-16.203-135.68-2.178-271.84 11.096-401.46 40.759-75.78 17.343-149.14 39.685-220.18 65.194-51.98 18.667-103.22 39.061-153.96 60.473-72.9 31.038-145.53 64.864-225.073 84.484-27.629 6.726-55.809 11.626-84.298 14.914-122.378 14.341-251.282 5.566-365.273-30.774-29.276-9.333-57.614-20.372-85.028-33.137-105.452-49.091-200.832-121.326-283.497-205.989-14.14-14.463-28.101-29.42-42.034-44.592C72.659 114.188 23.189 57.311-33.387 10.212c-33.79-28.145-69.971-53.818-111.132-69.728-25.681-9.936-52.185-15.322-79.492-16.913-28.631-1.669-56.697-.25-85.623 2.042C-408.359-66.4-517.822-53.42-614.427-84.76"/><path d="M3044.66 696.589c-60.74-136.891-174.55-255.144-317.25-316.842-84.11-36.561-169.95-40.652-253.92-75.723-93.56-38.804-191.75-64.828-291.86-80.215-68.65-10.566-138.27-16.118-207.98-17.328-137.29-2.386-275.08 11.948-406.23 43.911-76.69 18.689-150.9 42.801-222.81 70.337-52.67 20.164-104.53 42.184-155.81 65.279-73.73 33.431-147.11 69.721-227.643 90.831-27.945 7.249-56.469 12.55-85.309 16.103-124.018 15.466-254.635 4.148-370.057-35.401-29.621-10.15-58.281-22.041-86.011-35.652-106.497-52.263-202.142-127.901-284.692-215.566-14.119-14.979-28.045-30.437-41.956-46.103C43.49 104.317-5.937 45.886-62.92-2.094c-34.04-28.675-70.652-54.456-112.35-70.731-26.017-10.158-52.865-15.896-80.458-18.03-29.084-2.25-57.787-1.44-87.271.35-100.595 6.269-210.796 19.607-309.012-11.131"/><path d="M3038.1 693.409c-57.35-138.252-169.56-257.486-311.35-318.926-85.27-37.113-172.27-40.609-257.25-76.691-94.47-39.885-193.73-67.127-294.98-83.374-69.44-11.153-139.87-17.134-210.42-18.452-138.91-2.586-278.31 12.793-411.01 47.056-77.58 20.028-152.6 46.038-225.44 75.472-53.32 21.748-105.83 45.316-157.66 70.087-74.57 35.823-148.69 74.584-230.223 97.185-28.267 7.772-57.121 13.474-86.311 17.292-125.652 16.59-258.066 2.944-374.85-40.036-29.979-10.91-58.947-23.711-86.992-38.166-107.55-55.445-203.46-134.478-285.881-225.137-14.098-15.487-27.995-31.461-41.885-47.614C14.294 94.447-35.099 34.454-92.483-14.4c-34.291-29.198-71.34-55.1-113.568-71.734-26.361-10.387-53.546-16.461-81.432-19.147-29.528-2.844-58.876-2.636-88.919-1.34-102.457 4.549-213.396 18.252-313.224-11.898"/><path d="M3031.55 690.234c-53.98-139.613-164.59-259.821-305.45-321.01-86.43-37.672-174.61-40.573-260.6-77.665-95.38-40.967-195.71-69.42-298.09-86.533-70.23-11.748-141.47-18.152-212.85-19.57-140.52-2.794-281.55 13.646-415.79 50.2-78.47 21.376-154.35 49.134-228.06 80.616-54.02 23.231-107.14 48.446-159.52 74.886-75.4 38.216-150.27 79.441-232.799 103.539-28.581 8.302-57.779 14.398-87.314 18.481-127.292 17.715-261.411 1.49-379.642-44.663a762.138 762.138 0 01-87.966-40.681C254.744 369.431 158.698 286.781 76.391 193.12c-14.069-16.003-27.944-32.478-41.805-49.119-49.47-59.412-98.818-120.974-156.612-170.702-34.542-29.728-72.02-55.745-114.785-72.737-26.705-10.616-54.227-17.034-82.4-20.258-29.972-3.431-59.965-3.825-90.559-3.022-104.327 2.829-216.003 16.891-317.443-12.665"/><path d="M3025 687.061c-50.6-140.982-159.61-262.157-299.56-323.096-87.59-38.223-176.94-40.53-263.94-78.632-96.29-42.055-197.68-71.719-301.2-89.692-71.01-12.335-143.09-19.162-215.28-20.695-142.14-3.001-284.79 14.499-420.56 53.353-79.38 22.715-156.12 52.228-230.7 85.759-54.71 24.707-108.44 51.569-161.36 79.693-76.24 40.609-151.853 84.298-235.377 109.892-28.904 8.826-58.439 15.323-88.324 19.671-128.926 18.839-264.757.028-384.435-49.291-30.652-12.565-60.308-27.013-88.947-43.202-109.749-61.648-206.082-147.622-288.274-244.284-14.047-16.512-27.887-33.496-41.726-50.631-49.385-61.168-98.697-124.29-156.892-174.9-34.792-30.258-72.708-56.382-116.003-73.739-27.049-10.845-54.9-17.608-83.367-21.376-30.415-4.025-61.053-5.021-92.206-4.713-106.19 1.117-218.604 15.53-321.656-13.424"/><path d="M3018.45 683.88c-47.22-142.343-154.63-264.499-293.67-325.187-88.75-38.782-179.27-40.487-267.28-79.599-97.2-43.138-199.66-74.019-304.31-92.858-71.79-12.93-144.69-20.179-217.71-21.813-143.76-3.209-288.03 15.344-425.34 56.498-80.27 24.061-157.88 55.322-233.33 90.902-55.41 26.19-109.75 54.7-163.22 84.499-77.08 43.002-153.436 89.162-237.957 116.247-29.219 9.348-59.09 16.239-89.326 20.859-130.566 19.965-268.102-1.432-389.227-53.925-30.989-13.396-60.967-28.704-89.929-45.717C196.37 368.894 99.758 279.588 17.681 179.925c-14.026-17.02-27.837-34.513-41.648-52.142C-73.265 64.86-122.542.175-181.138-51.307c-35.043-30.789-73.388-57.028-117.221-74.743-27.392-11.074-55.566-18.238-84.341-22.493-30.852-4.677-62.142-6.21-93.854-6.404-108.059-.602-221.211 14.169-325.874-14.19"/><path d="M3011.9 680.706c-43.84-143.704-149.66-266.834-287.78-327.271-89.91-39.334-181.59-40.444-270.62-80.573-98.11-44.22-201.63-76.319-307.41-96.018-215.47-40.129-440.88-28.811-650.26 36.712-140.85 44.076-273.52 111.053-401.03 185.352-77.91 45.394-155.012 94.018-240.527 122.6-157.214 52.543-333.418 32.027-484.35-36.504-150.931-68.532-278.152-182.121-381.569-311.67C-105.5 55.777-189.798-82.59-329.104-139.353-488.423-204.267-673.553-142.512-840-186"/></g><defs><clipPath id="clip0_2:249"><path fill="#fff" d="M0 0h1920v553H0z"/></clipPath></defs></svg>