<svg width="70" height="70" xmlns="http://www.w3.org/2000/svg" xmlns:xlink="http://www.w3.org/1999/xlink"><svg fill="none" width="24" height="24" xmlns="http://www.w3.org/2000/svg"><path d="M18 2h-3a5 5 0 00-5 5v3H7v4h3v8h4v-8h3l1-4h-4V7a1 1 0 011-1h3V2z" stroke="#313E5B" stroke-width="2" stroke-linecap="round" stroke-linejoin="round"/></svg><svg fill="none" width="24" height="24" x="24" xmlns="http://www.w3.org/2000/svg"><path d="M3 9l9-7 9 7v11a2 2 0 01-2 2H5a2 2 0 01-2-2V9z" stroke="#313E5B" stroke-width="2" stroke-linecap="round" stroke-linejoin="round"/><path d="M9 22V12h6v10" stroke="#313E5B" stroke-width="2" stroke-linecap="round" stroke-linejoin="round"/></svg><svg fill="none" width="24" height="24" y="24" xmlns="http://www.w3.org/2000/svg"><path d="M17.5 8.999c-.895 0-1.777.221-2.565.644A1 1 0 0014 9h-4a1 1 0 00-1 1v12a1 1 0 001 1h4a.998.998 0 001-1v-5.5a1 1 0 012 0V22a.998.998 0 001 1h4a.998.998 0 001-1v-7.5A5.507 5.507 0 0017.5 9zm3.5 12h-2v-4.5a3 3 0 00-6 0v4.5h-2v-10h2v.703a1 1 0 001.781.625A3.482 3.482 0 0121 14.499v6.5zm-14-12H3a1 1 0 00-1 1v12a1 1 0 001 1h4a.998.998 0 001-1v-12a1 1 0 00-1-1zm-1 12H4v-10h2v10zM5.015 1.542a3.233 3.233 0 10-.057 6.457h.028a3.234 3.234 0 10.029-6.457zm-.029 4.457h-.028a1.222 1.222 0 01-1.37-1.229c0-.746.56-1.228 1.427-1.228A1.234 1.234 0 016.41 4.77C6.411 5.517 5.851 6 4.986 6z" fill="#313E5B"/></svg><svg fill="none" width="24" height="24" x="24" y="24" xmlns="http://www.w3.org/2000/svg"><path d="M4 4h16c1.1 0 2 .9 2 2v12c0 1.1-.9 2-2 2H4c-1.1 0-2-.9-2-2V6c0-1.1.9-2 2-2z" stroke="#313E5B" stroke-width="2" stroke-linecap="round" stroke-linejoin="round"/><path d="M22 6l-10 7L2 6" stroke="#313E5B" stroke-width="2" stroke-linecap="round" stroke-linejoin="round"/></svg><svg fill="none" width="22" height="22" x="48" xmlns="http://www.w3.org/2000/svg"><path d="M21 15.92v3a2 2 0 01-2.18 2 19.79 19.79 0 01-8.63-3.07 19.5 19.5 0 01-6-6 19.79 19.79 0 01-3.07-8.67A2 2 0 013.11 1h3a2 2 0 012 1.72c.127.96.361 1.903.7 2.81a2 2 0 01-.45 2.11L7.09 8.91a16 16 0 006 6l1.27-1.27a2 2 0 012.11-.45c.907.339 1.85.574 2.81.7A2 2 0 0121 15.92z" stroke="#313E5B" stroke-width="2" stroke-linecap="round" stroke-linejoin="round"/></svg><svg fill="none" width="22" height="22" x="48" y="22" xmlns="http://www.w3.org/2000/svg"><path d="M21.265 1.428a2.048 2.048 0 00-2.079-.324L1.266 8.339a2.043 2.043 0 00.104 3.818l3.625 1.261 2.02 6.682c.028.089.068.174.119.252.008.012.019.021.027.033a.988.988 0 00.281.265c.095.063.2.11.31.136l.013.001.006.003c.067.014.135.02.203.02l.018-.003a.992.992 0 00.301-.052c.023-.008.042-.02.064-.03a.994.994 0 00.205-.114l.152-.129 2.702-2.983 4.03 3.122c.355.276.792.427 1.242.427a2.054 2.054 0 002.007-1.633l3.263-16.017a2.03 2.03 0 00-.693-1.97zM8.37 13.736a.994.994 0 00-.272.506l-.31 1.504-.784-2.593 4.065-2.117-2.699 2.7zm8.302 5.304l-4.763-3.69a1.001 1.001 0 00-1.353.12l-.866.955.306-1.487 7.083-7.083a1 1 0 00-1.169-1.593L5.745 11.554 2.02 10.191 20 3l-3.328 16.04z" fill="#313E5B"/></svg><svg fill="none" width="22" height="22" y="48" xmlns="http://www.w3.org/2000/svg"><path fill-rule="evenodd" clip-rule="evenodd" d="M2.5 11a8.5 8.5 0 113.958 7.186 1 1 0 00-.821-.113l-2.88.859 1.085-2.537a1 1 0 00-.07-.92A8.456 8.456 0 012.5 11zM11 .5C5.201.5.5 5.201.5 11c0 1.838.473 3.568 1.305 5.073L.08 20.107a1 1 0 001.206 1.351l4.5-1.342A10.455 10.455 0 0011 21.5c5.799 0 10.5-4.701 10.5-10.5S16.799.5 11 .5zm2.293 12.682l-1.315.926A9.338 9.338 0 0110 12.585a10.201 10.201 0 01-1.624-2.114l.835-.709a1 1 0 00.236-1.232l-1.064-2a1 1 0 00-1.54-.283l-.316.275c-.759.662-1.208 1.75-.836 2.852A12.05 12.05 0 008.586 14c1.813 1.813 3.655 2.527 4.733 2.805.868.223 1.689-.076 2.268-.548l.591-.482a1 1 0 00-.12-1.634l-1.678-1a1 1 0 00-1.088.041h.001z" fill="#13A5EF"/></svg></svg>