<svg viewBox="0 0 167 62" fill="none" xmlns="http://www.w3.org/2000/svg"><path d="M85.44 24.24c-1.453 0-2.767-.313-3.94-.94a7.092 7.092 0 01-2.74-2.58c-.653-1.107-.98-2.347-.98-3.72 0-1.373.327-2.607.98-3.7a7.044 7.044 0 012.74-2.6c1.173-.627 2.487-.94 3.94-.94 1.453 0 2.76.313 3.92.94a7.044 7.044 0 012.74 2.6c.667 1.093 1 2.327 1 3.7 0 1.373-.333 2.613-1 3.72a7.092 7.092 0 01-2.74 2.58c-1.16.627-2.467.94-3.92.94zm0-2.76c.827 0 1.573-.187 2.24-.56a4.09 4.09 0 001.56-1.6c.387-.68.58-1.453.58-2.32 0-.867-.193-1.64-.58-2.32a3.953 3.953 0 00-1.56-1.58c-.667-.387-1.413-.58-2.24-.58-.827 0-1.573.193-2.24.58a4.09 4.09 0 00-1.58 1.58c-.373.68-.56 1.453-.56 2.32 0 .867.187 1.64.56 2.32.387.68.913 1.213 1.58 1.6.667.373 1.413.56 2.24.56zm15.735-8.4c1 0 1.907.233 2.72.7a4.85 4.85 0 011.94 1.94c.467.827.7 1.793.7 2.9s-.233 2.08-.7 2.92a5.024 5.024 0 01-1.94 1.94c-.813.453-1.72.68-2.72.68-1.373 0-2.453-.433-3.24-1.3v5.02h-3.12V13.24h2.98v1.24c.773-.933 1.9-1.4 3.38-1.4zm-.54 8.52c.8 0 1.453-.267 1.96-.8.52-.547.78-1.273.78-2.18 0-.907-.26-1.627-.78-2.16-.507-.547-1.16-.82-1.96-.82s-1.46.273-1.98.82c-.507.533-.76 1.253-.76 2.16 0 .907.253 1.633.76 2.18.52.533 1.18.8 1.98.8zm18.029-2.94c0 .04-.02.32-.06.84h-8.14a2.531 2.531 0 001.04 1.58c.546.387 1.226.58 2.04.58.56 0 1.053-.08 1.48-.24.44-.173.846-.44 1.22-.8l1.66 1.8c-1.014 1.16-2.494 1.74-4.44 1.74-1.214 0-2.287-.233-3.22-.7-.934-.48-1.654-1.14-2.16-1.98-.507-.84-.76-1.793-.76-2.86 0-1.053.246-2 .74-2.84a5.245 5.245 0 012.06-1.98c.88-.48 1.86-.72 2.94-.72 1.053 0 2.006.227 2.86.68a4.883 4.883 0 012 1.96c.493.84.74 1.82.74 2.94zm-5.58-3.22c-.707 0-1.3.2-1.78.6-.48.4-.774.947-.88 1.64h5.3c-.107-.68-.4-1.22-.88-1.62-.48-.413-1.067-.62-1.76-.62zm13.697-2.36c1.333 0 2.406.4 3.22 1.2.826.8 1.24 1.987 1.24 3.56V24h-3.12v-5.68c0-.853-.187-1.487-.56-1.9-.374-.427-.914-.64-1.62-.64-.787 0-1.414.247-1.88.74-.467.48-.7 1.2-.7 2.16V24h-3.12V13.24h2.98v1.26c.413-.453.926-.8 1.54-1.04a5.238 5.238 0 012.02-.38z" fill="#13A5EF"/><path d="M88.94 36.72c.8.253 1.427.68 1.88 1.28.453.587.68 1.313.68 2.18 0 1.227-.48 2.173-1.44 2.84-.947.653-2.333.98-4.16.98h-7.24V30h6.84c1.707 0 3.013.327 3.92.98.92.653 1.38 1.54 1.38 2.66 0 .68-.167 1.287-.5 1.82-.32.533-.773.953-1.36 1.26zm-7.06-4.28v3.3h3.22c.8 0 1.407-.14 1.82-.42.413-.28.62-.693.62-1.24s-.207-.953-.62-1.22c-.413-.28-1.02-.42-1.82-.42h-3.22zm3.78 9.12c.853 0 1.493-.14 1.92-.42.44-.28.66-.713.66-1.3 0-1.16-.86-1.74-2.58-1.74h-3.78v3.46h3.78zm18.413-8.32V44h-2.96v-1.28a4.246 4.246 0 01-1.48 1.08c-.573.24-1.193.36-1.86.36-1.413 0-2.533-.407-3.36-1.22s-1.24-2.02-1.24-3.62v-6.08h3.12v5.62c0 1.733.727 2.6 2.18 2.6.747 0 1.347-.24 1.8-.72.453-.493.68-1.22.68-2.18v-5.32h3.12zm6.01 10.92a10.77 10.77 0 01-2.62-.32c-.853-.227-1.533-.507-2.04-.84l1.04-2.24c.48.307 1.06.56 1.74.76.68.187 1.347.28 2 .28 1.32 0 1.98-.327 1.98-.98 0-.307-.18-.527-.54-.66-.36-.133-.913-.247-1.66-.34-.88-.133-1.606-.287-2.18-.46a3.456 3.456 0 01-1.5-.92c-.413-.44-.62-1.067-.62-1.88 0-.68.194-1.28.58-1.8.4-.533.974-.947 1.72-1.24.76-.293 1.654-.44 2.68-.44.76 0 1.514.087 2.26.26.76.16 1.387.387 1.88.68l-1.04 2.22a6.207 6.207 0 00-3.1-.8c-.666 0-1.166.093-1.5.28-.333.187-.5.427-.5.72 0 .333.18.567.54.7.36.133.934.26 1.72.38.88.147 1.6.307 2.16.48.56.16 1.047.46 1.46.9.414.44.62 1.053.62 1.84 0 .667-.2 1.26-.6 1.78-.4.52-.986.927-1.76 1.22-.76.28-1.666.42-2.72.42zm6.505-10.92h3.12V44h-3.12V33.24zm1.56-1.5c-.573 0-1.04-.167-1.4-.5a1.622 1.622 0 01-.54-1.24c0-.493.18-.907.54-1.24.36-.333.827-.5 1.4-.5.574 0 1.04.16 1.4.48.36.32.54.72.54 1.2 0 .52-.18.953-.54 1.3-.36.333-.826.5-1.4.5zm10.496 1.34c1.333 0 2.407.4 3.22 1.2.827.8 1.24 1.987 1.24 3.56V44h-3.12v-5.68c0-.853-.187-1.487-.56-1.9-.373-.427-.913-.64-1.62-.64-.787 0-1.413.247-1.88.74-.467.48-.7 1.2-.7 2.16V44h-3.12V33.24h2.98v1.26a4.04 4.04 0 011.54-1.04 5.242 5.242 0 012.02-.38zm17.445 5.58c0 .04-.02.32-.06.84h-8.14a2.54 2.54 0 001.04 1.58c.547.387 1.227.58 2.04.58.56 0 1.054-.08 1.48-.24.44-.173.847-.44 1.22-.8l1.66 1.8c-1.013 1.16-2.493 1.74-4.44 1.74-1.213 0-2.286-.233-3.22-.7-.933-.48-1.653-1.14-2.16-1.98-.506-.84-.76-1.793-.76-2.86 0-1.053.247-2 .74-2.84a5.258 5.258 0 012.06-1.98c.88-.48 1.86-.72 2.94-.72 1.054 0 2.007.227 2.86.68a4.877 4.877 0 012 1.96c.494.84.74 1.82.74 2.94zm-5.58-3.22c-.706 0-1.3.2-1.78.6-.48.4-.773.947-.88 1.64h5.3c-.106-.68-.4-1.22-.88-1.62-.48-.413-1.066-.62-1.76-.62zm10.778 8.72c-.894 0-1.767-.107-2.62-.32-.854-.227-1.534-.507-2.04-.84l1.04-2.24c.48.307 1.06.56 1.74.76a7.53 7.53 0 002 .28c1.32 0 1.98-.327 1.98-.98 0-.307-.18-.527-.54-.66-.36-.133-.914-.247-1.66-.34-.88-.133-1.607-.287-2.18-.46a3.444 3.444 0 01-1.5-.92c-.414-.44-.62-1.067-.62-1.88 0-.68.193-1.28.58-1.8.4-.533.973-.947 1.72-1.24.76-.293 1.653-.44 2.68-.44.76 0 1.513.087 2.26.26.76.16 1.386.387 1.88.68l-1.04 2.22a6.21 6.21 0 00-3.1-.8c-.667 0-1.167.093-1.5.28-.334.187-.5.427-.5.72 0 .333.18.567.54.7.36.133.933.26 1.72.38.88.147 1.6.307 2.16.48.56.16 1.046.46 1.46.9.413.44.62 1.053.62 1.84 0 .667-.2 1.26-.6 1.78-.4.52-.987.927-1.76 1.22-.76.28-1.667.42-2.72.42zm10.125 0c-.894 0-1.767-.107-2.62-.32-.854-.227-1.534-.507-2.04-.84l1.04-2.24c.48.307 1.06.56 1.74.76a7.53 7.53 0 002 .28c1.32 0 1.98-.327 1.98-.98 0-.307-.18-.527-.54-.66-.36-.133-.914-.247-1.66-.34-.88-.133-1.607-.287-2.18-.46a3.444 3.444 0 01-1.5-.92c-.414-.44-.62-1.067-.62-1.88 0-.68.193-1.28.58-1.8.4-.533.973-.947 1.72-1.24.76-.293 1.653-.44 2.68-.44.76 0 1.513.087 2.26.26.76.16 1.386.387 1.88.68l-1.04 2.22a6.21 6.21 0 00-3.1-.8c-.667 0-1.167.093-1.5.28-.334.187-.5.427-.5.72 0 .333.18.567.54.7.36.133.933.26 1.72.38.88.147 1.6.307 2.16.48.56.16 1.046.46 1.46.9.413.44.62 1.053.62 1.84 0 .667-.2 1.26-.6 1.78-.4.52-.987.927-1.76 1.22-.76.28-1.667.42-2.72.42z" fill="#313E5B"/><ellipse cx="27.699" cy="27.222" rx="27.699" ry="27.222" fill="#313E5B"/><path d="M49.066 27.222c0 11.598-9.566 21-21.367 21S6.33 38.82 6.33 27.222s9.567-21 21.368-21c11.8 0 21.367 9.402 21.367 21z" fill="#fff"/><path d="M67.268 47.444c0 7.732-6.378 14-14.245 14-7.867 0-14.245-6.268-14.245-14s6.378-14 14.245-14c7.867 0 14.245 6.268 14.245 14z" fill="#fff"/><ellipse cx="53.13" cy="47.297" rx="8.47" ry="8.703" fill="#13A5EF"/></svg>