<svg viewBox="0 0 56 56" xmlns="http://www.w3.org/2000/svg" xmlns:xlink="http://www.w3.org/1999/xlink"><style>:root&gt;svg{display:none}:root&gt;svg:target{display:block}</style><svg viewBox="0 0 56 56" fill="none" id="sprite--add-book" xmlns="http://www.w3.org/2000/svg"><path d="M30.333 21.001h-4.666v-4.666a2.334 2.334 0 00-4.667 0V21h-4.667a2.333 2.333 0 100 4.667H21v4.667a2.333 2.333 0 104.667 0v-4.667h4.666a2.334 2.334 0 000-4.667zm11.667 14V11.668a7 7 0 00-7-7H11.667a7 7 0 00-7 7v23.333a7 7 0 007 7H35a7 7 0 007-7zm-32.667 0V11.668a2.333 2.333 0 012.334-2.333H35a2.333 2.333 0 012.333 2.333v23.333A2.333 2.333 0 0135 37.335H11.667A2.333 2.333 0 019.333 35zm39.667-21a2.333 2.333 0 00-2.333 2.334v23.333a7 7 0 01-7 7H16.333a2.333 2.333 0 100 4.667h23.334a11.666 11.666 0 0011.666-11.667V16.335A2.333 2.333 0 0049 14z" fill="currentColor"/></svg><svg viewBox="0 0 56 56" fill="none" id="sprite--add-location" xmlns="http://www.w3.org/2000/svg"><path d="M32.667 22.05h-2.334v-2.333a2.333 2.333 0 00-4.666 0v2.333h-2.334a2.333 2.333 0 100 4.667h2.334v2.333a2.333 2.333 0 104.666 0v-2.333h2.334a2.333 2.333 0 100-4.667zm15.073.42A19.834 19.834 0 1014 38.407l12.367 12.39a2.334 2.334 0 003.313 0L42 38.407a19.739 19.739 0 005.74-15.937zm-9.007 12.647L28 45.85 17.267 35.117a15.142 15.142 0 01-4.364-12.18 15.33 15.33 0 016.744-11.27 15.097 15.097 0 0116.706 0 15.33 15.33 0 016.744 11.223 15.144 15.144 0 01-4.364 12.227z" fill="currentColor"/></svg><svg viewBox="0 0 46 46" fill="none" id="sprite--arrow-left" xmlns="http://www.w3.org/2000/svg"><path d="M44 23H2m21 21L2 23 23 2" stroke="currentColor" stroke-width="4" stroke-linecap="round" stroke-linejoin="round"/></svg><svg viewBox="0 0 46 46" fill="none" id="sprite--arrow-right" xmlns="http://www.w3.org/2000/svg"><path d="M2 23h42M23 2l21 21-21 21" stroke="currentColor" stroke-width="4" stroke-linecap="round" stroke-linejoin="round"/></svg><svg viewBox="0 0 56 56" fill="none" id="sprite--atom" xmlns="http://www.w3.org/2000/svg"><path d="M28 25.667a2.333 2.333 0 100 4.666 2.333 2.333 0 000-4.666zM45.78 28l.256-.327c3.15-4.34 3.897-8.33 2.17-11.34-1.726-3.01-5.6-4.34-10.873-3.803h-.42C34.79 7.7 31.64 4.667 28 4.667c-3.64 0-6.79 3.033-8.89 7.933l-.444-.07c-5.273-.537-9.146.793-10.873 3.803-1.726 3.01-.98 7 2.17 11.34l.257.327-.257.327c-3.15 4.34-3.896 8.33-2.17 11.34 1.54 2.566 4.503 3.92 8.54 3.92.724 0 1.47 0 2.334-.117h.42C21.21 48.3 24.36 51.333 28 51.333c3.64 0 6.79-3.033 8.89-7.933h.42c.793 0 1.54.117 2.333.117 4.13 0 7.164-1.354 8.634-3.92 1.726-3.01.98-7-2.17-11.34L45.78 28zm-33.95-9.333c.583-1.027 2.333-1.587 4.667-1.587h1.143a34.487 34.487 0 00-.817 4.363 34.999 34.999 0 00-3.383 2.917c-1.774-2.333-2.287-4.527-1.61-5.693zm0 18.666c-.677-1.166 0-3.36 1.563-5.763a34.984 34.984 0 003.383 2.917 34.87 34.87 0 00.817 4.386c-2.893.187-5.086-.373-5.763-1.54zm16.17-28c1.306 0 2.87 1.54 4.2 4.27a41.063 41.063 0 00-4.2 1.47 41.072 41.072 0 00-4.2-1.47c1.33-2.73 2.893-4.27 4.2-4.27zm0 37.334c-1.307 0-2.87-1.54-4.2-4.27a41.096 41.096 0 004.2-1.47 41.088 41.088 0 004.2 1.47c-1.33 2.73-2.894 4.27-4.2 4.27zm6.837-14.724a47.787 47.787 0 01-3.337 2.124 41.826 41.826 0 01-3.5 1.82 47.034 47.034 0 01-3.5-1.82c-1.167-.677-2.334-1.377-3.337-2.124C21 30.683 21 29.377 21 28c0-1.377 0-2.683.163-3.943a47.766 47.766 0 013.337-2.124 41.765 41.765 0 013.5-1.82 47.036 47.036 0 013.5 1.82c1.166.677 2.333 1.377 3.337 2.124 0 1.26.163 2.566.163 3.943 0 1.377 0 2.683-.163 3.943zm9.333 5.39c-.677 1.167-2.87 1.75-5.764 1.54.366-1.443.639-2.908.817-4.386a34.997 34.997 0 003.384-2.917c1.726 2.403 2.24 4.597 1.563 5.763zM42.607 24.43a35.012 35.012 0 00-3.384-2.917 34.47 34.47 0 00-.816-4.363h1.143c2.333 0 4.037.56 4.667 1.587.63 1.026.116 3.29-1.61 5.693z" fill="currentColor"/></svg><svg viewBox="0 0 56 56" fill="none" id="sprite--bag" xmlns="http://www.w3.org/2000/svg"><path d="M44.333 15.165h-7v-2.333a7 7 0 00-7-7h-4.666a7 7 0 00-7 7v2.333h-7a7 7 0 00-7 7v21a7 7 0 007 7h32.666a7 7 0 007-7v-21a7 7 0 00-7-7zm-21-2.333a2.333 2.333 0 012.334-2.333h4.666a2.333 2.333 0 012.334 2.333v2.333h-9.334v-2.333zm23.334 30.333a2.334 2.334 0 01-2.334 2.334H11.667a2.333 2.333 0 01-2.334-2.334V31.382h7v2.45a2.333 2.333 0 104.667 0v-2.45h14v2.45a2.333 2.333 0 104.667 0v-2.45h7v11.783zm0-16.333H9.333v-4.667a2.333 2.333 0 012.334-2.333h32.666a2.334 2.334 0 012.334 2.333v4.667z" fill="currentColor"/></svg><svg viewBox="0 0 56 56" fill="none" id="sprite--bag-alt" xmlns="http://www.w3.org/2000/svg"><path d="M44.333 15.167h-7v-2.334a7 7 0 00-7-7h-4.666a7 7 0 00-7 7v2.334h-7a7 7 0 00-7 7v21a7 7 0 007 7h32.666a7 7 0 007-7v-21a7 7 0 00-7-7zm-21-2.334a2.333 2.333 0 012.334-2.333h4.666a2.333 2.333 0 012.334 2.333v2.334h-9.334v-2.334zm23.334 30.334a2.334 2.334 0 01-2.334 2.333H11.667a2.333 2.333 0 01-2.334-2.333V30.333A50.657 50.657 0 0028 33.903a50.752 50.752 0 0018.667-3.57v12.834zm0-17.944a46.41 46.41 0 01-37.334 0v-3.056a2.333 2.333 0 012.334-2.334h32.666a2.333 2.333 0 012.334 2.334v3.056z" fill="currentColor"/></svg><svg viewBox="0 0 56 56" fill="none" id="sprite--bar-graph" xmlns="http://www.w3.org/2000/svg"><path d="M28 14.001a2.333 2.333 0 00-2.333 2.334v23.333a2.333 2.333 0 104.666 0V16.335A2.333 2.333 0 0028 14zm-11.667 14A2.333 2.333 0 0014 30.335v9.333a2.334 2.334 0 004.667 0v-9.333A2.333 2.333 0 0016.333 28zm23.334-4.666a2.333 2.333 0 00-2.334 2.333v14a2.333 2.333 0 104.667 0v-14a2.333 2.333 0 00-2.333-2.333zm4.666-18.667H11.667a7 7 0 00-7 7v32.667a7 7 0 007 7h32.666a7 7 0 007-7V11.668a7 7 0 00-7-7zm2.334 39.667a2.333 2.333 0 01-2.334 2.333H11.667a2.334 2.334 0 01-2.334-2.333V11.668a2.333 2.333 0 012.334-2.333h32.666a2.333 2.333 0 012.334 2.333v32.667z" fill="currentColor"/></svg><svg viewBox="0 0 56 56" fill="none" id="sprite--bill" xmlns="http://www.w3.org/2000/svg"><path d="M30.333 37.332h-14a2.333 2.333 0 100 4.667h14a2.333 2.333 0 000-4.667zm-9.333-14h4.667a2.333 2.333 0 100-4.666H21a2.334 2.334 0 000 4.666zM49 28h-7V7a2.333 2.333 0 00-3.5-2.03l-7 4.013-7-4.013a2.333 2.333 0 00-2.333 0l-7 4.013-7-4.013A2.333 2.333 0 004.667 7v37.333a7 7 0 007 7h32.666a7 7 0 007-7v-14A2.333 2.333 0 0049 28zM11.667 46.666a2.333 2.333 0 01-2.334-2.334V11.035L14 13.695a2.52 2.52 0 002.333 0l7-4.013 7 4.013a2.52 2.52 0 002.334 0l4.666-2.66v33.297c.007.796.149 1.585.42 2.334H11.667zm35-2.334a2.333 2.333 0 11-4.667 0V32.666h4.667v11.666zM30.333 28h-14a2.333 2.333 0 100 4.667h14a2.333 2.333 0 100-4.667z" fill="currentColor"/></svg><svg viewBox="0 0 56 56" fill="none" id="sprite--card" xmlns="http://www.w3.org/2000/svg"><path d="M16.333 35h7a2.333 2.333 0 000-4.667h-7a2.333 2.333 0 100 4.667zm28-23.333H11.667a7 7 0 00-7 7v21a7 7 0 007 7h32.666a7 7 0 007-7v-21a7 7 0 00-7-7zm2.334 28A2.333 2.333 0 0144.333 42H11.667a2.334 2.334 0 01-2.334-2.333v-14h37.334v14zm0-18.667H9.333v-2.333a2.334 2.334 0 012.334-2.334h32.666a2.333 2.333 0 012.334 2.334V21z" fill="currentColor"/></svg><svg viewBox="0 0 56 56" fill="none" id="sprite--cloud-computing" xmlns="http://www.w3.org/2000/svg"><path d="M49 46.667h-7a2.333 2.333 0 01-2.333-2.334v-7a11.666 11.666 0 003.313-22.82 16.333 16.333 0 00-31.173 4.41A9.334 9.334 0 0014 37.333h2.333v7A2.333 2.333 0 0114 46.667H7a2.333 2.333 0 100 4.666h7a7 7 0 007-7v-7h4.667V49a2.333 2.333 0 104.666 0V37.333H35v7a7 7 0 007 7h7a2.333 2.333 0 100-4.666zm-35-14a4.666 4.666 0 110-9.334A2.333 2.333 0 0016.333 21a11.667 11.667 0 0122.704-3.757 2.332 2.332 0 001.82 1.564 7 7 0 015.81 6.86 7 7 0 01-7 7H14z" fill="currentColor"/></svg><svg viewBox="0 0 56 56" fill="none" id="sprite--cloud-connection" xmlns="http://www.w3.org/2000/svg"><path d="M47.88 9.03a11.667 11.667 0 00-21.187.303h-10.36a7 7 0 00-7 7v9.333a2.333 2.333 0 004.667 0v-9.333a2.333 2.333 0 012.333-2.334h6.487A7 7 0 0021 18.666a7 7 0 007 7h17.103A8.54 8.54 0 0047.88 9.029zM45.103 21H28a2.333 2.333 0 110-4.667 2.333 2.333 0 002.333-2.334 7 7 0 0113.627-2.333 2.334 2.334 0 001.82 1.563A3.85 3.85 0 0149 17.103a3.897 3.897 0 01-3.897 3.896zm-.77 9.333A2.334 2.334 0 0042 32.666v7a2.333 2.333 0 01-2.333 2.333h-5.274a8.54 8.54 0 00-5.18-4.97 11.666 11.666 0 00-22.05 2.987 7 7 0 002.17 13.65h17.104a8.54 8.54 0 008.4-7h4.83a7 7 0 007-7v-7a2.333 2.333 0 00-2.334-2.333zM26.437 48.999H9.333a2.333 2.333 0 110-4.666 2.333 2.333 0 002.334-2.334 7 7 0 0113.626-2.333 2.335 2.335 0 001.82 1.563 3.85 3.85 0 013.22 3.874 3.897 3.897 0 01-3.896 3.896z" fill="currentColor"/></svg><svg fill="none" viewBox="0 0 24 24" id="sprite--cross" xmlns="http://www.w3.org/2000/svg"><path d="M18 6L6 18M6 6l12 12" stroke="currentColor" stroke-width="2" stroke-linecap="round" stroke-linejoin="round"/></svg><svg viewBox="0 0 56 56" fill="none" id="sprite--desktop-cloud-alt" xmlns="http://www.w3.org/2000/svg"><path d="M10.5 23.333h12.833A7 7 0 0025.83 9.8a9.334 9.334 0 00-17.453 2.333 5.833 5.833 0 002.123 11.2zm0-7A2.334 2.334 0 0012.833 14a4.667 4.667 0 019.077-1.493 2.333 2.333 0 001.82 1.54 2.333 2.333 0 011.937 2.286 2.333 2.333 0 01-2.334 2.334H10.5a1.167 1.167 0 110-2.334zM44.333 4.667H32.667a2.333 2.333 0 100 4.666h11.666a2.333 2.333 0 012.334 2.333V28H7a2.333 2.333 0 00-2.333 2.333V35a7 7 0 007 7h7v4.666h-7a2.333 2.333 0 100 4.667h32.666a2.333 2.333 0 000-4.666h-7V42h7a7 7 0 007-7V11.666a7 7 0 00-7-7zm-11.666 42h-9.334V42h9.334v4.666zm14-11.667a2.333 2.333 0 01-2.334 2.333H11.667A2.334 2.334 0 019.333 35v-2.334h37.334V35z" fill="currentColor"/></svg><svg viewBox="0 0 56 56" fill="none" id="sprite--diagram" xmlns="http://www.w3.org/2000/svg"><path d="M32.667 25h-9.334A2.333 2.333 0 0021 27.334v22a2.333 2.333 0 002.333 2.333h9.334A2.333 2.333 0 0035 49.333v-22A2.333 2.333 0 0032.667 25zm-2.334 22h-4.666V29.667h4.666V47zm21-40.666H42a2.333 2.333 0 00-2.333 2.333v40.666A2.333 2.333 0 0042 51.668h9.333a2.333 2.333 0 002.334-2.334V8.668a2.334 2.334 0 00-2.334-2.333zM49 47h-4.667V11H49v36zM14 35H4.667a2.333 2.333 0 00-2.334 2.334v12a2.333 2.333 0 002.334 2.333H14a2.333 2.333 0 002.333-2.334v-12A2.333 2.333 0 0014 35zm-2.333 12H7v-7.333h4.667V47z" fill="currentColor"/></svg><svg viewBox="0 0 48 48" fill="none" id="sprite--document" xmlns="http://www.w3.org/2000/svg"><path d="M18 20h2a2 2 0 000-4h-2a2 2 0 000 4zm0 4a2 2 0 000 4h12a2 2 0 000-4H18zm22-6.12a2.622 2.622 0 00-.12-.54v-.18a2.14 2.14 0 00-.38-.56l-12-12a2.14 2.14 0 00-.56-.38.64.64 0 00-.18 0A1.76 1.76 0 0026.1 4H14a6 6 0 00-6 6v28a6 6 0 006 6h20a6 6 0 006-6V17.88zm-12-7.06L33.18 16H30a2 2 0 01-2-2v-3.18zM36 38a2 2 0 01-2 2H14a2 2 0 01-2-2V10a2 2 0 012-2h10v6a6 6 0 006 6h6v18zm-6-6H18a2 2 0 000 4h12a2 2 0 000-4z" fill="currentColor"/></svg><svg viewBox="0 0 24 24" fill="none" id="sprite--facebook" xmlns="http://www.w3.org/2000/svg"><path d="M18 2h-3a5 5 0 00-5 5v3H7v4h3v8h4v-8h3l1-4h-4V7a1 1 0 011-1h3V2z" stroke="currentColor" stroke-width="2" stroke-linecap="round" stroke-linejoin="round"/></svg><svg viewBox="0 0 56 56" fill="none" id="sprite--gold" xmlns="http://www.w3.org/2000/svg"><path d="M18.667 25.667h18.666a2.335 2.335 0 001.797-.864 2.332 2.332 0 00.537-1.936L37.333 11.2A2.334 2.334 0 0035 9.333H21a2.333 2.333 0 00-2.333 1.867l-2.334 11.667a2.332 2.332 0 00.49 1.936 2.333 2.333 0 001.844.864zM22.913 14h10.174l1.4 7H21.513l1.4-7zm28.42 18.2A2.334 2.334 0 0049 30.333H35a2.333 2.333 0 00-2.333 1.867l-2.334 11.667a2.332 2.332 0 00.49 1.937 2.333 2.333 0 001.844.863h18.666a2.335 2.335 0 001.797-.864 2.333 2.333 0 00.537-1.936L51.333 32.2zM35.513 42l1.4-7h10.174l1.4 7H35.513zM21 30.334H7A2.333 2.333 0 004.667 32.2L2.333 43.867a2.333 2.333 0 00.49 1.937 2.333 2.333 0 001.844.863h18.666a2.335 2.335 0 001.797-.864 2.333 2.333 0 00.537-1.936L23.333 32.2A2.334 2.334 0 0021 30.333zM7.513 42l1.4-7h10.174l1.4 7H7.513z" fill="currentColor"/></svg><svg viewBox="0 0 55 55" fill="none" id="sprite--growth-graph" xmlns="http://www.w3.org/2000/svg"><path d="M16.042 36.665a3.437 3.437 0 003.437-3.437c.011-.114.011-.23 0-.344l6.394-6.394h1.054l3.69 3.69v.183a3.437 3.437 0 106.875 0v-.183l8.341-8.41a3.438 3.438 0 10-3.437-3.438c-.011.114-.011.23 0 .344l-8.273 8.273h-.367l-3.964-4.034a3.437 3.437 0 10-6.875 0l-6.875 6.875a3.437 3.437 0 100 6.875zm30.937 9.167H8.021V6.874a2.292 2.292 0 00-4.584 0v41.25a2.292 2.292 0 002.292 2.291h41.25a2.292 2.292 0 000-4.583z" fill="currentColor"/></svg><svg viewBox="0 0 24 24" fill="none" id="sprite--home" xmlns="http://www.w3.org/2000/svg"><path d="M3 9l9-7 9 7v11a2 2 0 01-2 2H5a2 2 0 01-2-2V9z" stroke="currentColor" stroke-width="2" stroke-linecap="round" stroke-linejoin="round"/><path d="M9 22V12h6v10" stroke="currentColor" stroke-width="2" stroke-linecap="round" stroke-linejoin="round"/></svg><svg viewBox="0 0 56 56" fill="none" id="sprite--honeycomb" xmlns="http://www.w3.org/2000/svg"><path d="M50.143 11.037L39.667 5.064a2.333 2.333 0 00-2.334 0L28 10.384l-9.333-5.32a2.333 2.333 0 00-2.334 0L5.857 11.037a2.333 2.333 0 00-1.19 2.03v11.947a2.334 2.334 0 001.19 2.03l9.333 5.296v10.594a2.333 2.333 0 001.19 2.03l10.5 5.973a2.333 2.333 0 002.333 0l10.454-5.973a2.333 2.333 0 001.19-2.03V32.34l9.333-5.296a2.334 2.334 0 001.19-2.03V13.067a2.334 2.334 0 00-1.237-2.03zM9.333 23.66v-9.333L17.5 9.66l8.167 4.667v9.333L17.5 28.327 9.333 23.66zm26.834 17.92L28 46.247l-8.167-4.667v-9.333L28 27.58l8.167 4.667v9.333zm10.5-17.92L38.5 28.327l-8.167-4.667v-9.333L38.5 9.66l8.167 4.667v9.333z" fill="currentColor"/></svg><svg viewBox="0 0 56 56" fill="none" id="sprite--house" xmlns="http://www.w3.org/2000/svg"><path d="M49 23.334a2.33 2.33 0 002.333-2.333v-7a2.33 2.33 0 00-1.595-2.213l-21-7a2.33 2.33 0 00-1.476 0l-21 7a2.33 2.33 0 00-1.595 2.213v7A2.333 2.333 0 007 23.334h2.333v16.763a6.988 6.988 0 00-4.666 6.57v4.667A2.333 2.333 0 007 53.667h42a2.332 2.332 0 002.333-2.333v-4.667a6.989 6.989 0 00-4.666-6.57V23.334H49zm-2.333 25.667H9.333v-2.334a2.335 2.335 0 012.334-2.333h32.666a2.335 2.335 0 012.334 2.333v2.334zM14 39.667V23.334h4.667v16.333H14zm9.333 0V23.334h9.334v16.333h-9.334zm14 0V23.334H42v16.333h-4.667zm-28-21v-2.985L28 9.46l18.667 6.223v2.985H9.333z" fill="currentColor"/></svg><svg viewBox="0 0 56 56" fill="none" id="sprite--lamp" xmlns="http://www.w3.org/2000/svg"><path d="M39.877 6.58A18.667 18.667 0 0024.29 2.707 18.666 18.666 0 009.66 17.454a18.83 18.83 0 004.013 15.516 10.594 10.594 0 012.66 6.697v7a7 7 0 007 7h9.334a7 7 0 007-7V40.11a12.063 12.063 0 012.846-7.443 18.667 18.667 0 00-2.636-26.133v.046zM35 46.667A2.333 2.333 0 0132.667 49h-9.334A2.333 2.333 0 0121 46.667v-2.333h14v2.333zm3.897-16.893A16.636 16.636 0 0035 39.667h-4.667v-7a2.333 2.333 0 10-4.666 0v7H21a15.167 15.167 0 00-3.733-9.707 14 14 0 017.91-22.68A14 14 0 0142 21a13.744 13.744 0 01-3.103 8.774z" fill="currentColor"/></svg><svg viewBox="0 0 24 24" fill="none" id="sprite--linkedin" xmlns="http://www.w3.org/2000/svg"><path d="M17.5 8.999c-.895 0-1.777.221-2.565.644A1 1 0 0014 9h-4a1 1 0 00-1 1v12a1 1 0 001 1h4a.998.998 0 001-1v-5.5a1 1 0 012 0V22a.998.998 0 001 1h4a.998.998 0 001-1v-7.5A5.507 5.507 0 0017.5 9zm3.5 12h-2v-4.5a3 3 0 00-6 0v4.5h-2v-10h2v.703a1 1 0 001.781.625A3.482 3.482 0 0121 14.499v6.5zm-14-12H3a1 1 0 00-1 1v12a1 1 0 001 1h4a.998.998 0 001-1v-12a1 1 0 00-1-1zm-1 12H4v-10h2v10zM5.015 1.542a3.233 3.233 0 10-.057 6.457h.028a3.234 3.234 0 10.029-6.457zm-.029 4.457h-.028a1.222 1.222 0 01-1.37-1.229c0-.746.56-1.228 1.427-1.228A1.234 1.234 0 016.41 4.77C6.411 5.517 5.851 6 4.986 6z" fill="currentColor"/></svg><svg viewBox="0 0 24 24" fill="none" id="sprite--mail" xmlns="http://www.w3.org/2000/svg"><path d="M4 4h16c1.1 0 2 .9 2 2v12c0 1.1-.9 2-2 2H4c-1.1 0-2-.9-2-2V6c0-1.1.9-2 2-2z" stroke="currentColor" stroke-width="2" stroke-linecap="round" stroke-linejoin="round"/><path d="M22 6l-10 7L2 6" stroke="currentColor" stroke-width="2" stroke-linecap="round" stroke-linejoin="round"/></svg><svg fill="none" viewBox="0 0 20 22" id="sprite--man" xmlns="http://www.w3.org/2000/svg"><path d="M13.71 11.71a6 6 0 10-7.42 0 10 10 0 00-6.22 8.18 1.006 1.006 0 002 .22 8 8 0 0115.9 0 1 1 0 001 .89h.11a1 1 0 00.88-1.1 10 10 0 00-6.25-8.19zM10 11a4 4 0 110-8 4 4 0 010 8z" fill="currentColor"/></svg><svg viewBox="0 0 48 48" fill="none" id="sprite--minus" xmlns="http://www.w3.org/2000/svg"><path d="M38 22H10a2 2 0 100 4h28a2 2 0 000-4z" fill="currentColor"/></svg><svg viewBox="0 0 56 56" fill="none" id="sprite--money" xmlns="http://www.w3.org/2000/svg"><path d="M51.334 39.666H4.666a2.333 2.333 0 000 4.667h46.666a2.333 2.333 0 100-4.667zm0 9.334H4.666a2.333 2.333 0 100 4.666h46.666a2.333 2.333 0 000-4.666zM14 16.333a2.334 2.334 0 100 4.668 2.334 2.334 0 000-4.668zm32.667-14H9.334a7 7 0 00-7 7V28a7 7 0 007 7h37.333a7 7 0 007-7V9.333a7 7 0 00-7-7zM49 28a2.333 2.333 0 01-2.333 2.333H9.334A2.333 2.333 0 017 28V9.333A2.333 2.333 0 019.334 7h37.333A2.333 2.333 0 0149 9.333V28zM28 11.666a7 7 0 100 14 7 7 0 000-14zM28 21a2.333 2.333 0 110-4.667A2.333 2.333 0 0128 21zm14-4.667a2.334 2.334 0 100 4.668 2.334 2.334 0 000-4.668z" fill="currentColor"/></svg><svg viewBox="0 0 56 56" fill="none" id="sprite--money-2" xmlns="http://www.w3.org/2000/svg"><path d="M49.513 28a7 7 0 001.82-4.667 7 7 0 00-7-7H32.247A7 7 0 0025.667 7h-14a7 7 0 00-7 7 7 7 0 001.82 4.667 7 7 0 000 9.333 7 7 0 000 9.333A7 7 0 004.667 42a7 7 0 007 7h32.666a7 7 0 005.18-11.667 7 7 0 000-9.333zM25.667 44.333h-14a2.333 2.333 0 110-4.666h14a2.333 2.333 0 110 4.666zm0-9.333h-14a2.333 2.333 0 110-4.667h14a2.333 2.333 0 010 4.667zm0-9.333h-14a2.333 2.333 0 110-4.667h14a2.333 2.333 0 110 4.667zm0-9.334h-14a2.333 2.333 0 110-4.666h14a2.333 2.333 0 110 4.666zm20.276 27.324a2.17 2.17 0 01-1.61.676H32.247a6.697 6.697 0 000-4.666h12.086A2.333 2.333 0 0146.667 42a2.333 2.333 0 01-.724 1.657zm0-9.334a2.169 2.169 0 01-1.61.677H32.247a6.697 6.697 0 000-4.667h12.086a2.333 2.333 0 012.334 2.334 2.333 2.333 0 01-.724 1.656zm0-9.333a2.167 2.167 0 01-1.61.677H32.247a6.697 6.697 0 000-4.667h12.086a2.333 2.333 0 012.334 2.333 2.333 2.333 0 01-.724 1.657z" fill="currentColor"/></svg><svg viewBox="0 0 56 56" fill="none" id="sprite--panel-add" xmlns="http://www.w3.org/2000/svg"><path d="M42 23.333h-9.333V7a2.333 2.333 0 00-2.334-2.333H18.667A2.333 2.333 0 0016.333 7v11.667H7A2.334 2.334 0 004.667 21v28A2.333 2.333 0 007 51.333h35A2.333 2.333 0 0044.333 49V25.667A2.333 2.333 0 0042 23.333zM16.333 46.667h-7V23.333h7v23.334zm11.667 0h-7V9.333h7v37.334zm11.667 0h-7V28h7v18.667zM49 9.333h-2.333V7A2.333 2.333 0 0042 7v2.333h-2.333a2.334 2.334 0 100 4.667H42v2.333a2.333 2.333 0 104.667 0V14H49a2.333 2.333 0 000-4.667z" fill="currentColor"/></svg><svg viewBox="0 0 56 56" fill="none" id="sprite--people" xmlns="http://www.w3.org/2000/svg"><path d="M28.7 28.513a11.481 11.481 0 003.967-8.68 11.667 11.667 0 00-23.334 0 11.48 11.48 0 003.967 8.68A18.666 18.666 0 002.333 45.5 2.333 2.333 0 107 45.5a14 14 0 0128 0 2.333 2.333 0 104.667 0A18.667 18.667 0 0028.7 28.513zm-7.7-1.68a7 7 0 110-14.001 7 7 0 010 14.001zm22.727.747A11.666 11.666 0 0035 8.167a2.333 2.333 0 000 4.666 7 7 0 017 7 7 7 0 01-3.5 6.044 2.334 2.334 0 00-.901 3.099c.183.35.453.65.784.867l.91.607.304.163A16.333 16.333 0 0148.93 45.5a2.333 2.333 0 104.667 0 21 21 0 00-9.87-17.92z" fill="currentColor"/></svg><svg viewBox="0 0 22 22" fill="none" id="sprite--phone" xmlns="http://www.w3.org/2000/svg"><path d="M21 15.92v3a2 2 0 01-2.18 2 19.79 19.79 0 01-8.63-3.07 19.5 19.5 0 01-6-6 19.79 19.79 0 01-3.07-8.67A2 2 0 013.11 1h3a2 2 0 012 1.72c.127.96.361 1.903.7 2.81a2 2 0 01-.45 2.11L7.09 8.91a16 16 0 006 6l1.27-1.27a2 2 0 012.11-.45c.907.339 1.85.574 2.81.7A2 2 0 0121 15.92z" stroke="currentColor" stroke-width="2" stroke-linecap="round" stroke-linejoin="round"/></svg><svg viewBox="0 0 56 56" fill="none" id="sprite--pie-chart" xmlns="http://www.w3.org/2000/svg"><path d="M28 4.67a23.334 23.334 0 1011.503 43.61h.28A23.333 23.333 0 0028 4.67zm2.333 4.83a18.667 18.667 0 0116.17 16.17h-16.17V9.5zM28 46.67A18.666 18.666 0 0125.667 9.5v18.503c.009.279.064.555.163.816v.35l9.333 16.03A18.223 18.223 0 0128 46.67zm11.27-3.828l-7.233-12.506h14.466a18.665 18.665 0 01-7.233 12.507z" fill="currentColor"/></svg><svg viewBox="0 0 48 48" fill="none" id="sprite--plus" xmlns="http://www.w3.org/2000/svg"><path d="M38 22H26V10a2 2 0 10-4 0v12H10a2 2 0 100 4h12v12a2 2 0 004 0V26h12a2 2 0 000-4z" fill="currentColor"/></svg><svg viewBox="0 0 56 56" fill="none" id="sprite--puzzle-piece" xmlns="http://www.w3.org/2000/svg"><path d="M39.667 51.334h-28a7 7 0 01-7-7V21.001a7 7 0 017-7H14a9.333 9.333 0 0117.033-5.087 9.007 9.007 0 011.634 5.087h7A2.333 2.333 0 0142 16.334v7a9.333 9.333 0 015.087 17.034A9.008 9.008 0 0142 42v7a2.333 2.333 0 01-2.333 2.333zm-28-32.666A2.333 2.333 0 009.333 21v23.333a2.333 2.333 0 002.334 2.334h25.666v-7.42a2.333 2.333 0 013.104-2.217 4.129 4.129 0 004.06-.537 4.667 4.667 0 002.17-3.196 4.669 4.669 0 00-1.12-3.71 4.41 4.41 0 00-5.064-1.284 2.332 2.332 0 01-3.103-2.216v-7.42h-7.467a2.334 2.334 0 01-2.333-3.104 4.13 4.13 0 00-.537-4.06 4.527 4.527 0 00-7-1.003 4.667 4.667 0 00-1.376 3.5c.005.535.108 1.065.303 1.563a2.334 2.334 0 01-2.217 3.104h-5.086z" fill="currentColor"/></svg><svg viewBox="0 0 56 56" fill="none" id="sprite--server" xmlns="http://www.w3.org/2000/svg"><path d="M35 39.667a2.333 2.333 0 100 4.666 2.333 2.333 0 000-4.666zm-14 0h-7a2.333 2.333 0 100 4.667h7a2.333 2.333 0 000-4.667zm21 0a2.333 2.333 0 100 4.666 2.333 2.333 0 000-4.666zm-7-14a2.333 2.333 0 100 4.666 2.333 2.333 0 000-4.666zm-14 0h-7a2.333 2.333 0 100 4.667h7a2.333 2.333 0 000-4.667zm21-14a2.333 2.333 0 100 4.666 2.333 2.333 0 000-4.666zm0 14a2.333 2.333 0 100 4.666 2.333 2.333 0 000-4.666zm9.333-14a7 7 0 00-7-7H11.667a7 7 0 00-7 7v4.667A7 7 0 006.487 21a7 7 0 00-1.82 4.667v4.667A7 7 0 006.487 35a7 7 0 00-1.82 4.667v4.667a7 7 0 007 7h32.666a7 7 0 007-7v-4.667A7 7 0 0049.513 35a7 7 0 001.82-4.666v-4.667A7 7 0 0049.513 21a7 7 0 001.82-4.666v-4.667zm-4.666 32.667a2.333 2.333 0 01-2.334 2.333H11.667a2.333 2.333 0 01-2.334-2.333v-4.667a2.334 2.334 0 012.334-2.333h32.666a2.333 2.333 0 012.334 2.333v4.667zm0-14a2.333 2.333 0 01-2.334 2.333H11.667a2.333 2.333 0 01-2.334-2.333v-4.667a2.334 2.334 0 012.334-2.333h32.666a2.333 2.333 0 012.334 2.333v4.667zm0-14a2.333 2.333 0 01-2.334 2.333H11.667a2.333 2.333 0 01-2.334-2.333v-4.667a2.334 2.334 0 012.334-2.333h32.666a2.333 2.333 0 012.334 2.333v4.667zM35 11.667a2.333 2.333 0 100 4.666 2.333 2.333 0 000-4.666zm-14 0h-7a2.333 2.333 0 100 4.667h7a2.333 2.333 0 000-4.667z" fill="currentColor"/></svg><svg viewBox="0 0 56 56" fill="none" id="sprite--ship" xmlns="http://www.w3.org/2000/svg"><path d="M8.446 40.32a2.335 2.335 0 104.34-1.727l-2.613-6.58 15.493-3.43v11.084a2.333 2.333 0 104.667 0V28.583l15.493 3.43-2.613 6.58a2.334 2.334 0 003.48 2.795c.388-.262.687-.634.86-1.068l3.617-9.123a2.334 2.334 0 00-.117-1.96 2.333 2.333 0 00-1.54-1.19L42 26.39V16.333A2.333 2.333 0 0039.666 14H35V7a2.333 2.333 0 00-2.334-2.333h-9.333A2.333 2.333 0 0021 7v7h-4.667A2.333 2.333 0 0014 16.333V26.39L6.486 28a2.334 2.334 0 00-1.54 1.19 2.333 2.333 0 00-.116 1.96l3.616 9.17zm17.22-30.987h4.667V14h-4.667V9.333zm-7 9.334h18.667v6.673l-8.82-2.007h-1.027l-8.82 2.007v-6.673zm29.657 26.32c-.819.25-1.603.603-2.333 1.05a4.853 4.853 0 01-4.9 0 10.78 10.78 0 00-10.594 0 4.993 4.993 0 01-4.946 0 10.827 10.827 0 00-10.594 0 4.853 4.853 0 01-4.9 0c-.73-.447-1.514-.8-2.333-1.05a2.335 2.335 0 00-3.057 1.68A2.333 2.333 0 006.23 49.56a4.9 4.9 0 011.33.583 9.333 9.333 0 004.666 1.284 9.66 9.66 0 004.854-1.307 6.183 6.183 0 015.973 0 9.684 9.684 0 009.613 0 6.182 6.182 0 015.974 0 9.334 9.334 0 009.566 0c.412-.26.86-.456 1.33-.583a2.333 2.333 0 001.797-2.87 2.333 2.333 0 00-3.01-1.68z" fill="currentColor"/></svg><svg viewBox="0 0 56 56" fill="none" id="sprite--sitemap" xmlns="http://www.w3.org/2000/svg"><path d="M35 4.668v4.667h-7a2.334 2.334 0 00-2.333 2.333v14H21v-4.667a2.333 2.333 0 00-2.333-2.333h-14a2.333 2.333 0 00-2.334 2.333v14a2.333 2.333 0 002.334 2.334h14A2.333 2.333 0 0021 35v-4.666h4.667v14A2.333 2.333 0 0028 46.668h7v4.667a2.333 2.333 0 002.333 2.333h14a2.333 2.333 0 002.334-2.333v-14A2.333 2.333 0 0051.333 35h-14A2.333 2.333 0 0035 37.335V42h-4.667V14H35v4.667A2.333 2.333 0 0037.333 21h14a2.333 2.333 0 002.334-2.333v-14a2.333 2.333 0 00-2.334-2.333h-14A2.333 2.333 0 0035 4.668zm4.667 35H49v9.333h-9.333v-9.333zm-23.334-7H7v-9.333h9.333v9.333zM49 7.001v9.334h-9.333V7H49z" fill="currentColor"/></svg><svg viewBox="0 0 56 56" fill="none" id="sprite--store" xmlns="http://www.w3.org/2000/svg"><path d="M51.333 18.247a2.903 2.903 0 000-.443L46.667 6.137a2.333 2.333 0 00-2.334-1.47H11.667a2.333 2.333 0 00-2.17 1.47L4.83 17.804a2.916 2.916 0 000 .443 1.33 1.33 0 00-.163.42 9.334 9.334 0 004.666 7.934V49a2.334 2.334 0 002.334 2.333h32.666A2.333 2.333 0 0046.667 49V26.694a9.333 9.333 0 004.666-8.027 1.35 1.35 0 000-.42zm-21 28.42h-4.666v-9.333h4.666v9.333zm11.667 0h-7V35.001a2.333 2.333 0 00-2.333-2.334h-9.334A2.333 2.333 0 0021 35.001v11.666h-7V28.001a9.334 9.334 0 007-3.22 9.333 9.333 0 0014 0A9.332 9.332 0 0042 28v18.666zm0-23.333a4.667 4.667 0 01-4.667-4.667 2.333 2.333 0 10-4.666 0 4.667 4.667 0 01-9.334 0 2.333 2.333 0 10-4.666 0 4.671 4.671 0 01-8.911 2.123 4.67 4.67 0 01-.423-1.773l3.92-9.683h29.494l3.92 9.683A4.667 4.667 0 0142 23.334z" fill="currentColor"/></svg><svg viewBox="0 0 56 56" fill="none" id="sprite--study" xmlns="http://www.w3.org/2000/svg"><path d="M50.143 23.777l-2.333-1.283-21-11.667h-.257a2.476 2.476 0 00-.443-.14h-.863a2.73 2.73 0 00-.467.14h-.257l-21 11.667a2.333 2.333 0 000 4.06l5.81 3.22v11.06a7 7 0 007 7H35a7 7 0 007-7v-11.06l4.667-2.614v6.674a2.333 2.333 0 104.666 0v-8.027a2.333 2.333 0 00-1.19-2.03zm-12.81 17.057A2.333 2.333 0 0135 43.167H16.333A2.333 2.333 0 0114 40.834v-8.47l10.523 5.833.35.14h.21c.194.024.39.024.584 0 .193.024.39.024.583 0h.21c.124-.026.242-.074.35-.14l10.523-5.833v8.47zm-11.666-7.327L9.473 24.5l16.194-9.006L41.86 24.5l-16.193 9.007z" fill="currentColor"/></svg><svg viewBox="0 0 22 22" fill="none" id="sprite--telegram" xmlns="http://www.w3.org/2000/svg"><path d="M21.265 1.428a2.048 2.048 0 00-2.079-.324L1.266 8.339a2.043 2.043 0 00.104 3.818l3.625 1.261 2.02 6.682c.028.089.068.174.119.252.008.012.019.021.027.033a.988.988 0 00.281.265c.095.063.2.11.31.136l.013.001.006.003c.067.014.135.02.203.02l.018-.003a.992.992 0 00.301-.052c.023-.008.042-.02.064-.03a.994.994 0 00.205-.114l.152-.129 2.702-2.983 4.03 3.122c.355.276.792.427 1.242.427a2.054 2.054 0 002.007-1.633l3.263-16.017a2.03 2.03 0 00-.693-1.97zM8.37 13.736a.994.994 0 00-.272.506l-.31 1.504-.784-2.593 4.065-2.117-2.699 2.7zm8.302 5.304l-4.763-3.69a1.001 1.001 0 00-1.353.12l-.866.955.306-1.487 7.083-7.083a1 1 0 00-1.169-1.593L5.745 11.554 2.02 10.191 20 3l-3.328 16.04z" fill="currentColor"/></svg><svg viewBox="0 0 56 56" fill="none" id="sprite--user-check" xmlns="http://www.w3.org/2000/svg"><path d="M31.033 28.513A11.48 11.48 0 0035 19.833a11.667 11.667 0 10-23.333 0 11.48 11.48 0 003.966 8.68A18.667 18.667 0 004.667 45.5a2.333 2.333 0 004.666 0 14 14 0 1128 0 2.333 2.333 0 104.667 0 18.666 18.666 0 00-10.967-16.987zm-7.7-1.68a7 7 0 110-13.999 7 7 0 010 14zm27.324-5.53a2.332 2.332 0 00-3.314 0l-4.666 4.667-1.447-1.47a2.334 2.334 0 10-3.313 3.29l3.126 3.127a2.333 2.333 0 003.29 0l6.23-6.23a2.334 2.334 0 00.094-3.384z" fill="currentColor"/></svg><svg viewBox="0 0 55 55" fill="none" id="sprite--user-tick" xmlns="http://www.w3.org/2000/svg"><path d="M30.48 28.003a11.275 11.275 0 003.895-8.525 11.458 11.458 0 10-22.917 0 11.276 11.276 0 003.896 8.525 18.333 18.333 0 00-10.77 16.683 2.292 2.292 0 004.583 0 13.75 13.75 0 1127.5 0 2.292 2.292 0 104.583 0 18.333 18.333 0 00-10.77-16.683zm-7.563-1.65a6.875 6.875 0 110-13.75 6.875 6.875 0 010 13.75zm26.835-5.431a2.29 2.29 0 00-3.254 0l-4.583 4.583-1.421-1.444a2.291 2.291 0 00-3.254 0 2.292 2.292 0 000 3.231l3.07 3.071a2.292 2.292 0 003.232 0l6.118-6.119a2.29 2.29 0 00.092-3.322z" fill="currentColor"/></svg><svg viewBox="0 0 56 56" fill="none" id="sprite--wallet" xmlns="http://www.w3.org/2000/svg"><path d="M44.333 16.333H42V14a7 7 0 00-7-7H11.667a7 7 0 00-7 7v28a7 7 0 007 7h32.666a7 7 0 007-7V23.333a7 7 0 00-7-7zm-32.666-4.666H35A2.333 2.333 0 0137.333 14v2.333H11.667a2.333 2.333 0 110-4.666zm35 23.333h-2.334a2.333 2.333 0 110-4.667h2.334V35zm0-9.333h-2.334a7 7 0 100 14h2.334V42a2.333 2.333 0 01-2.334 2.333H11.667A2.333 2.333 0 019.333 42V20.603a7 7 0 002.334.397h32.666a2.333 2.333 0 012.334 2.333v2.334z" fill="currentColor"/></svg><svg viewBox="0 0 22 22" fill="none" id="sprite--whatsapp" xmlns="http://www.w3.org/2000/svg"><path fill-rule="evenodd" clip-rule="evenodd" d="M2.5 11a8.5 8.5 0 113.958 7.186 1 1 0 00-.821-.113l-2.88.859 1.085-2.537a1 1 0 00-.07-.92A8.456 8.456 0 012.5 11zM11 .5C5.201.5.5 5.201.5 11c0 1.838.473 3.568 1.305 5.073L.08 20.107a1 1 0 001.206 1.351l4.5-1.342A10.455 10.455 0 0011 21.5c5.799 0 10.5-4.701 10.5-10.5S16.799.5 11 .5zm2.293 12.682l-1.315.926A9.338 9.338 0 0110 12.585a10.201 10.201 0 01-1.624-2.114l.835-.709a1 1 0 00.236-1.232l-1.064-2a1 1 0 00-1.54-.283l-.316.275c-.759.662-1.208 1.75-.836 2.852A12.05 12.05 0 008.586 14c1.813 1.813 3.655 2.527 4.733 2.805.868.223 1.689-.076 2.268-.548l.591-.482a1 1 0 00-.12-1.634l-1.678-1a1 1 0 00-1.088.041h.001z" fill="currentColor"/></svg><svg fill="none" viewBox="0 0 20 22" id="sprite--zap" xmlns="http://www.w3.org/2000/svg"><path d="M11 1L1 13h9l-1 8L19 9h-9l1-8z" stroke="currentColor" stroke-width="2" stroke-linecap="round" stroke-linejoin="round"/></svg></svg>